<svg width="78" height="96" viewBox="0 0 78 96" fill="none" xmlns="http://www.w3.org/2000/svg">
<g clip-path="url(#clip0_36_656)">
<path d="M40.4067 96L5.55264 75.958L40.1894 56.0356L75.0378 76.0833L40.4067 96Z" fill="#021F12"/>
<path d="M39.1258 79.906L0 57.4029L38.8799 35.0365L78 57.5396L39.1258 79.906Z" fill="#007C17"/>
<path d="M42.7456 71.1896L71.3837 53.734L51.7122 42.6648L42.7456 71.1896Z" fill="#04381F"/>
<path d="M49.482 13.6158C49.482 25.8074 30.1707 63.7892 30.1707 63.7892C30.1707 63.7892 10.8594 48.0313 10.8594 35.8341C10.8594 23.6368 19.5 8.77907 30.165 2.64341C40.8299 -3.49226 49.4762 1.41855 49.4762 13.6158H49.482Z" fill="#C4FBAA"/>
<path d="M78 57.5396V64.376L39.1258 86.7424V79.906L78 57.5396Z" fill="#04381F"/>
<path d="M39.1258 86.7424V79.906L0 57.4029V64.2393L39.1258 86.7424Z" fill="#7CE949"/>
<path d="M44.7185 1.84583L55.738 8.31761L40.2981 12.6872L44.7185 1.84583Z" fill="#C4FBAA"/>
<path d="M42.7456 71.1896L30.165 63.7835L32.0177 58.8043L42.7456 71.1896Z" fill="#C4FBAA"/>
<path d="M62.0626 21.0219C62.0626 33.2134 42.7513 71.1953 42.7513 71.1953C42.7513 71.1953 23.44 55.4374 23.44 43.2401C23.44 31.0429 32.0864 16.1851 42.7513 10.0495C53.4163 3.91381 62.0626 8.82462 62.0626 21.0219Z" fill="#7CE949"/>
<path d="M35.3173 42.6648L41.6763 47.9972L54.1197 26.6107" stroke="#007C17" stroke-width="6" stroke-miterlimit="10"/>
</g>
<defs>
<clipPath id="clip0_36_656">
<rect width="78" height="96" fill="white"/>
</clipPath>
</defs>
</svg>
