<svg width="90" height="96" viewBox="0 0 90 96" fill="none" xmlns="http://www.w3.org/2000/svg">
<g clip-path="url(#clip0_36_655)">
<path d="M86.307 36.0813L87.7026 28.7661L82.7345 29.1112L82.3727 26.598L86.5539 20.3928L83.4467 16.1371L78.3867 21.3129L76.4569 20.8011L76.8188 14.3543L71.1615 16.0163L68.9617 23.0037L66.5954 24.7865L63.0172 22.1583L58.0319 28.5016L59.9904 33.177L58.5718 36.2135L53.1615 38.928L51.7658 46.2431L56.7339 45.8981L57.0957 48.4055L53.0064 54.881L56.0217 58.8664L61.0817 53.6906L63.0115 54.2024L62.6497 60.6434L68.307 58.9814L70.5067 51.994L72.873 50.2113L76.4512 52.8394L81.4365 46.4904L79.478 41.8149L80.8966 38.7784L86.307 36.064V36.0813ZM73.5737 42.5913C70.0645 47.054 65.4984 48.3997 63.3791 45.599C61.2597 42.7926 62.3855 36.8979 65.8947 32.4294C69.404 27.9667 73.97 26.621 76.0894 29.4217C78.2087 32.2281 77.083 38.1228 73.5737 42.5913Z" fill="#7CE949"/>
<path d="M45.1953 47.123L42.0249 40.3599L44.0581 35.7822L52.1851 31.4115L54.0115 20.525L46.4588 21.3704L45.8041 17.6898L51.7658 7.85573L47.0102 2.17958L39.515 10.1619L36.5571 9.535L36.8443 0.0057373L28.298 2.84669L25.2368 13.3076L21.7045 16.1025L16.1506 12.4737L8.81621 22.1755L11.9866 28.9386L9.95341 33.5163L1.82642 37.887L0 48.7735L7.55265 47.9281L8.2074 51.6087L2.24569 61.4427L7.00128 67.1189L14.4965 59.1366L17.4544 59.7635L17.1672 69.2927L25.7135 66.4518L28.7747 55.9909L32.307 53.1959L37.8609 56.8248L45.1953 47.123ZM33.0651 41.8781C27.9075 48.6987 21.0096 50.9933 17.6611 47.008C14.3184 43.0111 15.7945 34.2352 20.9464 27.4088C26.1098 20.5883 33.0019 18.2936 36.3504 22.279C39.693 26.2759 38.217 35.0518 33.0651 41.8781Z" fill="#C4FBAA"/>
<path d="M51.3925 65.4511L54.1034 60.9482L51.9094 58.3775L48.492 62.0466L47.1308 61.7705L47.2399 57.4229L43.3286 58.7456L41.9502 63.5246L40.3363 64.8128L37.7805 63.1738L34.4378 67.625L35.9081 70.696L34.9834 72.7893L31.2674 74.8079L30.4518 79.7767L33.9094 79.3626L34.2138 81.0361L31.5029 85.5391L33.6969 88.1097L37.1142 84.4406L38.4754 84.7167L38.3663 89.0644L42.2776 87.7417L43.656 82.9627L45.2699 81.6745L47.8258 83.3135L51.1685 78.8623L49.6981 75.7913L50.6228 73.6979L54.3389 71.6736L55.1487 66.7048L51.6911 67.1189L51.3867 65.4454L51.3925 65.4511ZM45.5973 76.5274C43.2482 79.6559 40.0893 80.7256 38.5501 78.9198C37.0108 77.1082 37.6656 73.1056 40.0147 69.9713C42.3637 66.8428 45.5226 65.7732 47.0676 67.579C48.6069 69.3905 47.9521 73.3989 45.6031 76.5274H45.5973Z" fill="#7CE949"/>
<path d="M88.6043 39.5318L90 32.2166L85.0319 32.5617L84.6701 30.0485L88.7594 23.573L85.7441 19.5876L80.6841 24.7634L78.7543 24.2516L79.1161 17.8048L73.4588 19.4668L71.2591 26.4542L68.8928 28.237L65.3146 25.6088L60.3293 31.9521L62.2878 36.6276L60.8692 39.664L55.4588 42.3785L54.0632 49.6936L59.0313 49.3486L59.3931 51.856L55.3038 58.3315L58.3191 62.3169L63.3791 57.1411L65.3089 57.6529L64.947 64.0939L70.6043 62.4319L72.8041 55.4445L75.1704 53.6618L78.7486 56.2899L83.7339 49.9409L81.7754 45.2654L83.194 42.2289L88.6043 39.5145V39.5318ZM75.8711 46.0418C72.3618 50.5045 67.7958 51.8502 65.6764 49.0495C63.5571 46.2431 64.6828 40.3484 68.1921 35.8799C71.7013 31.4172 76.2674 30.0715 78.3867 32.8722C80.5061 35.6786 79.3803 41.5733 75.8711 46.0418Z" fill="#007C17"/>
<path d="M47.4927 50.5735L44.3223 43.8105L46.3555 39.2327L54.4825 34.862L56.3089 23.9756L48.7562 24.8209L48.1015 21.1404L54.0632 11.3063L49.3076 5.63014L41.8124 13.6124L38.8545 12.9856L39.1417 3.4563L30.5954 6.29725L27.5342 16.7582L24.0019 19.5531L18.448 15.9243L11.1136 25.6261L14.284 32.3891L12.2508 36.9669L4.12381 41.3376L2.29739 52.224L9.85004 51.3787L10.5048 55.0592L4.54309 64.8933L9.29867 70.5695L16.7939 62.5872L19.7518 63.214L19.4646 72.7433L28.0109 69.9024L31.0721 59.4414L34.6044 56.6465L40.1583 60.2753L47.4927 50.5735ZM35.3625 45.3287C30.2049 52.1493 23.307 54.4439 19.9585 50.4585C16.6158 46.4616 18.0919 37.6857 23.2438 30.8594C28.4072 24.0388 35.2993 21.7442 38.6477 25.7296C41.9904 29.7265 40.5144 38.5024 35.3625 45.3287Z" fill="#7CE949"/>
<path d="M53.6899 68.3266L56.4008 63.8237L54.2068 61.253L50.7894 64.9221L49.4282 64.646L49.5373 60.2983L45.626 61.6211L44.2476 66.4001L42.6337 67.6883L40.0779 66.0493L36.7352 70.5005L38.2055 73.5714L37.2808 75.6648L33.5648 77.6834L32.7492 82.6521L36.2068 82.2381L36.5112 83.9116L33.8003 88.4146L35.9943 90.9852L39.4116 87.3161L40.7728 87.5922L40.6637 91.9399L44.575 90.6172L45.9534 85.8381L47.5673 84.5499L50.1232 86.189L53.4659 81.7377L51.9955 78.6668L52.9202 76.5734L56.6363 74.5491L57.4461 69.5803L53.9885 69.9944L53.6841 68.3209L53.6899 68.3266ZM47.8947 79.4029C45.5456 82.5314 42.3867 83.601 40.8475 81.7953C39.3082 79.9837 39.963 75.9811 42.3121 72.8468C44.6611 69.7183 47.82 68.6487 49.365 70.4545C50.9043 72.266 50.2495 76.2744 47.9005 79.4029H47.8947Z" fill="#007C17"/>
<path d="M90 32.2166L87.7026 28.7661L85.3823 28.9271L84.6701 30.0543L85.0319 32.5617L90 32.2166Z" fill="#04381F"/>
<path d="M79.1161 17.8049L76.8187 14.3543L71.1614 16.0221L73.4588 19.4726L79.1161 17.8049Z" fill="#C4FBAA"/>
<path d="M65.3146 25.6145L63.0172 22.164L58.0319 28.513L60.3293 31.9636L65.3146 25.6145Z" fill="#C4FBAA"/>
<path d="M55.4589 42.39L53.1615 38.9395L51.7601 46.2489L54.0575 49.6994L55.4589 42.39Z" fill="#C4FBAA"/>
<path d="M64.9413 64.1112L62.6439 60.6606L62.8105 57.7334L63.3733 57.1526L65.3031 57.6702L64.9413 64.1112Z" fill="#04381F"/>
<path d="M49.5373 60.2983L47.2399 57.4229L43.3286 58.7456L45.626 61.621L49.5373 60.2983Z" fill="#007C17"/>
<path d="M40.0778 66.0492L37.7805 63.1738L34.4435 67.625L36.7409 70.5004L40.0778 66.0492Z" fill="#007C17"/>
<path d="M33.5648 77.6891L31.2674 74.8137L30.4518 79.7824L32.7492 82.6579L33.5648 77.6891Z" fill="#007C17"/>
<path d="M57.4518 69.5918L55.1544 66.7164L54.6203 66.7796L53.6898 68.3266L53.9943 70.0059L57.4518 69.5918Z" fill="#007C17"/>
<path d="M39.1474 3.45055L36.85 0L28.3038 2.84095L30.6012 6.2915L39.1474 3.45055Z" fill="#C4FBAA"/>
<path d="M18.4537 15.9128L16.1564 12.4622L8.82196 22.164L11.1193 25.6146L18.4537 15.9128Z" fill="#C4FBAA"/>
<path d="M4.1238 41.3318L1.82642 37.8813L0 48.762L2.29738 52.2126L4.1238 41.3318Z" fill="#C4FBAA"/>
<path d="M19.4646 72.7376L19.7518 63.2026L17.3682 62.6965L17.1672 69.287L19.4646 72.7376Z" fill="#C4FBAA"/>
<path d="M56.3146 23.9756L54.0172 20.525L48.1129 21.1404L48.762 24.821L56.3146 23.9756Z" fill="#C4FBAA"/>
<path d="M59.8698 77.0278C61.6101 78.0342 68.083 75.9293 74.3146 72.3235C80.552 68.7177 84.1934 64.9796 82.4531 63.9732C80.7128 62.9668 74.24 65.0716 68.0083 68.6774C61.7709 72.2833 58.1296 76.0213 59.8698 77.0278Z" fill="#021F12"/>
<path d="M40.6637 91.9571L38.3663 89.0816L38.3835 88.4433L39.4174 87.3334L40.7786 87.6094L40.6637 91.9571Z" fill="#7CE949"/>
</g>
<defs>
<clipPath id="clip0_36_655">
<rect width="90" height="96" fill="white"/>
</clipPath>
</defs>
</svg>
