<svg width="33" height="32" viewBox="0 0 33 32" fill="none" xmlns="http://www.w3.org/2000/svg">
<path d="M9.92025 6.66666C9.91989 7.3739 9.6386 8.05204 9.13826 8.55189C8.63791 9.05173 7.95949 9.33235 7.25225 9.33199C6.545 9.33164 5.86687 9.05035 5.36702 8.55C4.86717 8.04965 4.58656 7.37124 4.58691 6.66399C4.58727 5.95675 4.86856 5.27861 5.36891 4.77876C5.86925 4.27892 6.54767 3.9983 7.25491 3.99866C7.96216 3.99901 8.6403 4.2803 9.14014 4.78065C9.63999 5.281 9.9206 5.95941 9.92025 6.66666ZM10.0002 11.3067H4.66691V28H10.0002V11.3067ZM18.4269 11.3067H13.1202V28H18.3736V19.24C18.3736 14.36 24.7336 13.9067 24.7336 19.24V28H30.0002V17.4267C30.0002 9.19999 20.5869 9.50666 18.3736 13.5467L18.4269 11.3067Z" fill="white"/>
</svg>
