<svg width="1392" height="469" viewBox="0 0 1392 469" fill="none" xmlns="http://www.w3.org/2000/svg">
<g clip-path="url(#clip0_140_4467)">
<path d="M671.507 410.12L671.449 410.616L671.507 410.12C660.824 408.87 649.945 407.49 639.405 406.153L638.905 406.09L638.905 406.09L638.885 406.087L638.885 406.087L638.856 406.084C580.28 398.651 519.636 390.956 456.638 400.131C403.509 407.87 344.269 432.311 308.598 468.153L307.749 469.006L308.952 469.006L311.722 469.006L311.927 469.006L312.073 468.861C347.138 434.22 404.875 410.525 456.761 402.97C519.196 393.876 579.52 401.528 637.932 408.941C648.632 410.299 659.7 411.701 670.574 412.976L670.632 412.479L670.574 412.976C737.538 420.816 815.953 425.021 889.247 396.49C937.257 377.813 977.938 346.779 1017.21 316.817L1017.23 316.807C1063.17 281.757 1110.61 245.582 1168.77 230.563C1211.99 219.396 1259.92 220.22 1315.34 233.11C1335.21 237.733 1354.78 243.477 1373.72 249.039C1398.18 256.226 1423.5 263.663 1449.81 268.768C1503.55 279.193 1552.35 277.367 1594.96 263.32L1594.97 263.323C1596.64 262.772 1598.31 262.198 1599.96 261.608C1622.99 253.401 1646.43 239.33 1663.81 222.105C1681.19 204.888 1692.58 184.454 1691.36 163.529L1691.33 162.964L1690.77 163.066L1688.33 163.515L1687.9 163.595L1687.92 164.036C1689.08 184.08 1678.13 203.799 1661.2 220.544C1644.28 237.281 1621.44 250.982 1598.98 258.984C1556 274.29 1506.19 276.667 1451.01 265.957C1424.87 260.884 1399.65 253.479 1375.23 246.307L1375.13 246.276C1356.2 240.717 1336.61 234.965 1316.67 230.328C1260.67 217.301 1212.09 216.475 1168.17 227.823C1109.09 243.098 1061.25 279.589 1015.08 314.815L1015.07 314.816C975.953 344.658 935.563 375.463 888.147 393.911C815.749 422.071 738.063 417.913 671.507 410.12Z" fill="#7CE948" stroke="#7CE948"/>
<path d="M844.173 346.354L843.838 345.983L844.173 346.354L844.194 346.336C889.921 305.101 937.164 262.502 993.239 229.843C1081.81 178.262 1192.87 153.571 1290.31 163.786C1315.15 166.392 1339.52 171.187 1363.12 175.829L1363.22 175.339L1363.12 175.83L1363.24 175.852C1380.42 179.239 1398.21 182.739 1416.08 185.376C1468.04 193.043 1511.67 191.059 1549.45 179.284C1573.46 171.783 1595.09 159.559 1611.6 145.005C1628.11 130.455 1639.53 113.546 1643.05 96.6635L1643.17 96.0588L1642.56 96.0616L1640.24 96.072L1639.83 96.0738L1639.75 96.4701C1636.37 112.701 1625.36 129.073 1609.29 143.229C1593.22 157.38 1572.12 169.288 1548.64 176.6C1511.49 188.179 1468.45 190.135 1417.03 182.546C1399.35 179.935 1381.72 176.468 1364.65 173.111L1364.35 173.051C1340.66 168.39 1316.15 163.566 1291.1 160.939L1291.05 161.436L1291.1 160.939C1192.84 150.637 1080.87 175.534 991.575 227.538C935.14 260.404 887.72 303.165 841.9 344.482L841.883 344.498L841.883 344.498L841.862 344.517C827.205 357.736 812.051 371.4 796.846 384.521C766.616 410.609 726.677 442.558 679.816 468.028L680.055 468.968L683.849 468.968L683.978 468.968L684.091 468.905C730.105 443.511 769.31 412.116 799.099 386.411C814.229 373.355 829.296 359.769 843.869 346.629L843.869 346.628L844.173 346.354Z" fill="white" stroke="white"/>
<path d="M742.291 468.95L742.348 468.964L742.407 468.964L751.156 468.964L751.266 467.976C724.845 462.023 700.433 454.702 679.034 447.671C666.268 443.477 653.269 439.033 640.692 434.733L640.685 434.731L640.683 434.73L640.645 434.718C565.037 408.873 486.751 382.114 398.371 387.656L398.402 388.155L398.371 387.656C348.544 390.781 297.135 404.951 249.711 428.632C226.806 440.068 205.592 453.341 186.559 468.068L185.402 468.964L186.865 468.964L189.76 468.964L189.93 468.964L190.065 468.86C247.873 424.432 323.512 395.194 398.215 390.51C485.848 385.016 563.729 411.632 639.146 437.412C651.724 441.715 664.737 446.161 677.525 450.363C696.893 456.726 718.727 463.328 742.291 468.95ZM949.954 468.076L950.093 469.056L961.27 466.98C961.269 466.981 961.268 466.981 961.266 466.982L961.423 467.457C961.424 467.456 961.426 467.456 961.427 467.455C964.814 466.339 968.201 465.154 971.575 463.905C1026.04 443.734 1076.3 407.313 1129.76 349.332C1144.02 333.866 1157.81 317.777 1171.16 302.212L1171.16 302.207L1171.5 301.816L1171.5 301.815L1171.5 301.81L1171.51 301.809C1197.71 271.239 1224.79 239.658 1256.41 211.492C1288.56 182.847 1354.2 133.71 1432.88 126.072C1479.84 121.514 1524.39 132.682 1563.78 142.56L1639.5 161.548L1639.86 161.64L1640.05 161.316L1641.1 159.53L1641.43 158.954L1640.79 158.792L1565.07 139.803C1525.5 129.879 1480.55 118.606 1432.91 123.229C1353.02 130.98 1286.58 180.721 1254.11 209.647C1222.31 237.981 1195.13 269.681 1168.88 300.306C1155.44 315.982 1141.55 332.182 1127.21 347.735C1074.13 405.303 1024.36 441.373 970.556 461.3C963.711 463.835 956.84 466.087 949.954 468.076Z" fill="#01941C" stroke="#01941C"/>
</g>
<defs>
<clipPath id="clip0_140_4467">
<rect width="1392" height="469" fill="white"/>
</clipPath>
</defs>
</svg>
