<svg width="180" height="49" viewBox="0 0 180 49" fill="none" xmlns="http://www.w3.org/2000/svg">
<path d="M38.5031 18.9716H53.4022V22.8052H42.5434V28.6964H52.579V32.4992H42.5434V39.107H53.8824V42.9441H38.5031V18.9716Z" fill="white"/>
<path d="M71.491 38.6304C69.9853 41.9531 67.3135 43.4585 63.6127 43.4585C58.6806 43.4585 55.0142 39.5185 55.0142 34.6904C55.0142 29.8622 58.6806 25.9223 63.6127 25.9223C67.2449 25.9223 69.9853 27.5305 71.3195 30.4761L67.7559 32.0157C66.8985 30.2703 65.3928 29.5159 63.6093 29.5159C60.766 29.5159 58.8144 31.8442 58.8144 34.6869C58.8144 37.5296 60.766 39.8922 63.6093 39.8922C65.4579 39.8922 67.0014 39.1036 67.8897 37.1524L71.4876 38.6235L71.491 38.6304Z" fill="white"/>
<path d="M72.2456 34.6904C72.2456 29.7937 76.0492 25.9223 80.9813 25.9223C85.9134 25.9223 89.717 29.7902 89.717 34.6904C89.717 39.5905 85.9134 43.4585 80.9813 43.4585C76.0492 43.4585 72.2456 39.5871 72.2456 34.6904ZM80.9813 39.8614C83.7903 39.8614 85.9134 37.5331 85.9134 34.6904C85.9134 31.8477 83.8246 29.5193 80.9813 29.5193C78.138 29.5193 76.0492 31.8134 76.0492 34.6904C76.0492 37.5673 78.1723 39.8614 80.9813 39.8614Z" fill="white"/>
<path d="M92.3203 18.9716H107.219V22.8052H96.3606V28.6964H106.396V32.4992H96.3606V39.107H107.7V42.9441H92.3203V18.9716Z" fill="white"/>
<path d="M108.831 34.6904C108.831 29.8623 112.018 26.0594 116.71 26.0594C119.039 26.0594 121.436 27.191 122.534 29.3822V26.4709H126.166V48.5952H122.362V40.3415C121.196 42.2926 118.901 43.3556 116.71 43.3556C112.018 43.3556 108.831 39.5185 108.831 34.6904ZM117.533 39.8271C120.41 39.8271 122.465 37.5331 122.465 34.6904C122.465 31.8477 120.41 29.5879 117.533 29.5879C114.655 29.5879 112.635 31.8477 112.635 34.6904C112.635 37.5331 114.724 39.8271 117.533 39.8271Z" fill="white"/>
<path d="M129.283 37.3273V26.4366H133.087V35.9214C133.087 38.3183 134.425 39.8271 136.685 39.8271C138.945 39.8271 140.523 38.1846 140.523 35.7842V26.4366H144.327V42.9441H140.626V40.2729C139.597 42.4298 137.474 43.3899 135.385 43.3899C131.959 43.3899 129.287 40.8901 129.287 37.3273H129.283Z" fill="white"/>
<path d="M148.998 19.486C150.401 19.486 151.533 20.6176 151.533 21.8829C151.533 23.1483 150.401 24.3141 148.998 24.3141C147.595 24.3141 146.463 23.1826 146.463 21.8829C146.463 20.5833 147.629 19.486 148.998 19.486ZM150.915 26.4024V42.9442H147.112V26.4024H150.915Z" fill="white"/>
<path d="M153.175 26.4366H155.401V20.6827H159.236V26.4366H161.668V29.8622H159.236V42.9441H155.401V29.8622H153.175V26.4366Z" fill="white"/>
<path d="M175.819 26.4366H180L170.17 48.5952H166.061L169.11 41.7474L162.566 26.4401H166.812L171.161 37.2965H171.299L175.819 26.4401V26.4366Z" fill="white"/>
<path d="M48.1683 7.07957H38.8735C37.9577 7.07957 37.1209 6.60979 36.7436 5.87597C35.6906 3.84939 33.619 2.5875 31.3313 2.5875C29.2426 2.5875 27.3253 3.64022 26.1935 5.39933C26.0289 5.65651 25.9534 5.94798 25.9465 6.23259C25.9465 6.24974 25.9431 6.26688 25.9431 6.28403C25.9431 6.28403 25.9431 6.29089 25.9431 6.29431C25.9431 6.32175 25.95 6.34918 25.95 6.37661C25.998 7.21673 26.6874 7.8854 27.5414 7.8854C28.1382 7.8854 28.6492 7.55621 28.927 7.07614C28.9511 7.04185 28.9716 7.01099 28.9956 6.9767C29.0642 6.88068 29.1431 6.7881 29.2254 6.70237C29.2254 6.69894 29.2289 6.68866 29.2357 6.68866L29.3318 6.59264C29.4278 6.49663 29.5341 6.4109 29.6439 6.33203C29.6816 6.3046 29.7228 6.27717 29.7639 6.24974C29.8222 6.20859 29.8874 6.17087 29.9526 6.14001C30.0246 6.09886 30.1035 6.06114 30.1824 6.03028C30.2647 5.98913 30.3504 5.95827 30.4396 5.93426C30.4979 5.91712 30.5528 5.89654 30.6145 5.88283C30.6728 5.86911 30.7346 5.85539 30.7929 5.84168C30.9129 5.81425 31.0295 5.80053 31.153 5.7971C31.2113 5.79367 31.273 5.79367 31.3348 5.79367C31.472 5.79367 31.6057 5.80396 31.7361 5.82111C31.863 5.83825 31.9967 5.86568 32.1202 5.9034C32.1854 5.92055 32.2437 5.94112 32.302 5.9617C32.3054 5.95827 32.3123 5.96513 32.3123 5.96513C32.3774 5.98227 32.4357 6.00627 32.4906 6.03371C32.6587 6.10229 32.8165 6.18801 32.9605 6.29088C33.0291 6.33546 33.0943 6.3869 33.156 6.43833L33.1697 6.45205C33.2418 6.51034 33.3103 6.57207 33.3755 6.64065C33.4441 6.7058 33.5024 6.77438 33.5642 6.84639C33.6087 6.90126 33.6568 6.95955 33.7013 7.0247C33.7391 7.07614 33.7699 7.131 33.8008 7.18587C33.8317 7.23731 33.866 7.28531 33.8934 7.34018C33.8934 7.34361 33.8968 7.35389 33.9037 7.35732C34.1095 7.75509 34.2227 8.2043 34.2227 8.68437C34.2227 9.16444 34.1095 9.61365 33.9037 10.0114C33.9003 10.0148 33.8934 10.0251 33.8934 10.0286C33.866 10.0834 33.8351 10.1349 33.8008 10.1829C33.7699 10.2377 33.7356 10.2926 33.7013 10.344C33.6568 10.4023 33.6087 10.4641 33.5642 10.5223C33.5058 10.5944 33.4441 10.6629 33.3755 10.7281C33.3103 10.7967 33.2418 10.855 33.1697 10.9167C33.1663 10.9167 33.1594 10.9201 33.156 10.9304C33.0874 10.9853 33.0188 11.0367 32.9468 11.0813C32.8748 11.1361 32.7959 11.1807 32.717 11.2219C32.7136 11.2219 32.7067 11.2253 32.7033 11.2322C32.6347 11.2699 32.5626 11.3007 32.4872 11.3316C32.4186 11.3625 32.3466 11.3899 32.2677 11.4139C32.2231 11.431 32.1716 11.4516 32.1202 11.4653C32.0345 11.4893 31.9418 11.5099 31.8492 11.5236C31.7909 11.5373 31.7361 11.5476 31.6743 11.5511C31.6297 11.5614 31.5783 11.5648 31.5337 11.5648C31.4685 11.5682 31.3965 11.5751 31.3279 11.5751C31.2353 11.5751 31.1496 11.5716 31.0638 11.5614C31.0124 11.5579 30.9644 11.5511 30.9129 11.5442C30.8443 11.5339 30.7723 11.5271 30.7037 11.5065C30.6488 11.4962 30.5905 11.4791 30.5356 11.4653C30.4979 11.4551 30.4567 11.4413 30.4224 11.4276C30.323 11.3968 30.2269 11.359 30.1309 11.3076C30.0212 11.263 29.9148 11.2013 29.8119 11.1396C29.7262 11.0881 29.637 11.0298 29.5616 10.9647L29.5376 10.9407H29.5341V10.9475C29.2666 10.7452 28.9339 10.6184 28.5703 10.6184C27.6855 10.6184 26.9686 11.335 26.9686 12.2197C26.9686 12.6998 27.1847 13.125 27.5208 13.4199C27.5208 13.4199 27.5448 13.4473 27.5517 13.4542C27.5551 13.4576 27.562 13.4645 27.5654 13.4679C28.392 14.2635 28.8447 15.3333 28.8447 16.4821C28.8447 18.7349 27.0544 20.5729 24.825 20.6621C24.825 20.6449 24.8284 20.6278 24.8318 20.6141C24.8764 20.1031 24.9039 19.5854 24.9107 19.0641V18.9133C24.9107 18.4092 24.8936 17.912 24.8456 17.4182C24.0876 8.01227 16.1819 0.595215 6.58181 0.595215C4.78802 0.595215 3.03196 0.852397 1.35478 1.35304L0.397858 1.64108L0.236657 2.62865C0.0754554 3.58536 0 4.56607 0 5.55021C0 12.8884 4.27355 19.3968 10.9445 22.3286C11.9632 21.4816 13.0573 20.7409 14.2097 20.1031C13.7295 19.9694 13.2528 19.8117 12.7966 19.6334C6.96938 17.3427 3.20001 11.8151 3.20001 5.55364C3.20001 5.08729 3.22402 4.62093 3.26518 4.16487C4.33871 3.9214 5.4534 3.79796 6.58181 3.79796C14.491 3.79796 21.0007 9.89483 21.6524 17.6274C21.6901 18.0526 21.7073 18.4812 21.7073 18.9167V19.0539C21.7039 19.6608 21.6627 20.2712 21.5838 20.8747C21.5804 20.8918 21.5804 20.9158 21.5735 20.933C14.1617 22.1812 8.27271 27.7877 6.71557 35.2253L6.37602 36.8575L6.2697 37.365H6.32457L8.44077 37.1456C16.0035 36.3809 22.2012 31.1173 24.2213 23.882C24.362 23.8785 24.506 23.8785 24.6501 23.8785C28.7247 23.8785 32.0413 20.5592 32.0413 16.4855C32.0413 15.8991 31.9727 15.3196 31.8355 14.7607C33.9208 14.5858 35.7695 13.365 36.7436 11.4859C37.1243 10.759 37.9612 10.2892 38.8735 10.2892H48.1683C49.0566 10.2892 49.77 9.5725 49.77 8.6878C49.77 7.8031 49.0566 7.08643 48.1683 7.08643V7.07957ZM10.5432 33.5108C12.2719 29.0187 16.0275 25.6445 20.6783 24.3963C18.9463 28.8815 15.1906 32.2626 10.5432 33.5108Z" fill="#7CE948"/>
</svg>
