<svg width="698" height="176" viewBox="0 0 698 176" fill="none" xmlns="http://www.w3.org/2000/svg">
<g clip-path="url(#clip0_34_959)">
<path d="M617.342 304.038C573.33 295.847 529.752 273.988 487.721 239.009C467.149 221.885 448.554 203.188 430.573 185.106C416.657 171.112 402.266 156.645 387.061 143.01C344.659 104.985 302.976 81.1298 259.63 70.0793C201.312 55.2032 142.214 64.0818 85.0845 72.6688C36.217 80.0141 -14.3178 87.6083 -65.3114 80.8646C-143.157 70.5872 -209.769 29.2016 -264.669 -9.91231C-273.583 -16.2651 -282.606 -22.8223 -291.329 -29.1659C-338.943 -63.789 -388.178 -99.5889 -447.348 -121.715C-514.887 -146.975 -606.842 -150.869 -651.918 -109.451L-653.93 -110.694C-608.114 -152.793 -514.878 -148.917 -446.44 -123.326C-386.867 -101.049 -337.467 -65.1261 -289.691 -30.3874C-280.972 -24.0478 -271.958 -17.4922 -263.056 -11.1514C-208.471 27.7393 -142.304 68.8611 -65.1644 79.0664C-14.6441 85.7451 35.6596 78.1868 84.3055 70.8759C141.756 62.24 201.15 53.3179 260.179 68.3592C304.037 79.5411 346.146 103.614 388.9 141.957C404.157 155.638 418.57 170.133 432.51 184.147C450.452 202.19 469.005 220.842 489.49 237.894C532.748 273.901 577.624 295.854 622.772 303.157C669.962 310.779 729.531 299.123 746.974 262.5L749.333 263.284C731.479 300.762 670.672 312.72 622.522 304.94C620.793 304.661 619.059 304.361 617.333 304.04L617.342 304.038Z" fill="#006837"/>
<path d="M-320.804 58.24C-333.721 55.836 -346.588 52.6938 -359.316 48.6849C-394.71 37.5331 -427.205 20.2487 -458.629 3.53219C-464.324 0.502861 -470.016 -2.52251 -475.718 -5.51364C-512.771 -24.9374 -552.985 -43.82 -596.07 -50.4387C-643.522 -57.7253 -688.087 -47.2207 -709.614 -23.678L-711.615 -24.8276C-689.609 -48.8938 -644.164 -59.6495 -595.842 -52.2275C-552.327 -45.5418 -511.807 -26.5332 -474.519 -6.9833C-468.808 -3.99058 -463.113 -0.961247 -457.415 2.07207C-426.105 18.7243 -393.734 35.9429 -358.61 47.0116C-268.734 75.3309 -171.12 60.0699 -105.523 46.1221C-85.8721 41.9443 -66.0057 37.2666 -46.7945 32.7403C13.2827 18.5919 75.4014 3.96051 140.648 2.33709C243.847 -0.232429 353.862 31.8447 434.927 88.1349C455.594 102.487 474.736 118.505 493.248 133.997C506.664 145.222 520.53 156.829 534.862 167.704C576.313 199.15 615.047 218.208 653.274 225.971C701.6 235.795 750.45 224.873 772.193 199.46L774.228 200.567C751.996 226.557 702.057 237.678 652.893 227.735C614.202 219.876 575.075 200.642 533.278 168.934C518.895 158.024 505.002 146.398 491.568 135.15C473.098 119.695 454.002 103.712 433.432 89.4276C352.864 33.4835 243.535 1.60658 140.971 4.15919C76.0284 5.77656 14.0516 20.3751 -45.8834 34.4907C-65.1079 39.0178 -84.9889 43.7027 -104.667 47.8853C-161.335 59.9314 -241.794 72.9476 -320.8 58.2439L-320.804 58.24Z" fill="#003209"/>
<path d="M-133.002 220.341C-157.007 215.874 -179.261 208.31 -198.885 197.667C-251.684 169.035 -280.76 121.958 -302.232 79.6813C-305.49 73.2712 -308.679 66.8185 -311.869 60.3523C-330.38 22.8736 -349.516 -15.8831 -383.527 -47.5705C-439.97 -100.16 -535.198 -126.251 -615.104 -111.015L-615.908 -112.777C-535.106 -128.184 -438.814 -101.803 -381.743 -48.6256C-347.449 -16.6728 -328.232 22.2427 -309.646 59.8796C-306.455 66.3426 -303.27 72.7913 -300.019 79.1935C-278.687 121.182 -249.845 167.922 -197.64 196.233C-136.313 229.487 -48.6758 232.322 36.7756 203.807C74.693 191.153 109.99 174.036 144.126 157.478C175.052 142.479 207.029 126.966 240.94 114.776C281.637 100.143 386.173 70.7051 477.653 113.258C509.49 128.065 535.203 149.84 560.067 170.897L563.265 173.602C590.25 196.431 617.22 218.024 650.394 231.334C687.957 246.405 728.717 246.941 754.228 232.687L755.764 234.19C729.577 248.822 687.858 248.327 649.462 232.92C615.894 219.449 588.732 197.709 561.571 174.736L558.375 172.028C533.643 151.084 508.07 129.427 476.576 114.778C386.154 72.7168 282.503 101.924 242.14 116.433C208.347 128.579 176.428 144.064 145.555 159.037C111.356 175.625 75.991 192.778 37.9203 205.479C-21.0309 225.149 -81.0787 230.001 -132.993 220.343L-133.002 220.341Z" fill="#00E22A"/>
<path d="M43.4558 221.649C-63.5139 201.744 -144.594 126.082 -196.846 70.0914C-206.028 60.2528 -215.29 50.0912 -224.241 40.2627C-277.911 -18.6426 -333.409 -79.5528 -412.959 -116.991C-504.776 -160.202 -619.79 -164.738 -705.957 -128.541L-707.27 -130.155C-664.941 -147.938 -614.605 -156.236 -561.698 -154.149C-508.794 -152.066 -456.982 -139.74 -411.873 -118.512C-331.835 -80.8459 -276.169 -19.7505 -222.335 39.3328C-213.384 49.1581 -204.13 59.315 -194.959 69.1418C-141.27 126.671 -57.0161 205.077 54.2557 221.637C111.107 230.101 172.183 222.442 246.473 197.535C266.54 190.807 286.524 183.297 305.849 176.03C343.612 161.834 382.667 147.154 424.145 137.647C466.502 127.94 548.55 116.372 622.148 147.991C666.036 166.844 699.941 198.311 729.851 226.075L787.061 279.18L785.284 280.242L728.075 227.137C698.318 199.516 664.589 168.21 621.152 149.552C548.369 118.288 467.048 129.768 425.044 139.394C383.731 148.86 344.761 163.509 307.074 177.677C287.725 184.949 267.725 192.473 247.617 199.213C172.892 224.265 111.385 231.958 54.0419 223.422C50.4872 222.892 46.9529 222.3 43.4516 221.648L43.4558 221.649Z" fill="#01941C"/>
</g>
<defs>
<clipPath id="clip0_34_959">
<rect width="698" height="176" fill="white"/>
</clipPath>
</defs>
</svg>
