<svg width="580" height="504" viewBox="0 0 580 504" fill="none" xmlns="http://www.w3.org/2000/svg">
<g clip-path="url(#clip0_63_21977)">
<rect width="580" height="504" fill="#161B17"/>
<g opacity="0.06" filter="url(#filter0_f_63_21977)">
<path d="M483.343 421.666C376.668 470.337 203.188 470.069 95.8555 421.111C-3.97842 375.573 -11.4314 303.919 73.8816 254.979C80.2472 251.292 87.1792 247.748 94.6549 244.347C106.797 238.798 119.8 233.893 133.506 229.633C239.977 196.356 387.021 201.494 482.143 244.884C589.475 293.859 590.019 373.014 483.366 421.666H483.343Z" fill="#C4FBAA"/>
</g>
<path d="M492.813 394.793C380.954 459.371 199.012 459.041 86.432 394.05C-18.2716 333.595 -26.0656 238.5 63.3799 173.571C70.0604 168.684 77.339 163.962 85.1536 159.447C97.8961 152.086 111.525 145.57 125.897 139.92C237.549 95.7751 391.779 102.579 491.534 160.168C604.094 225.16 604.671 330.214 492.813 394.793Z" fill="#04381F"/>
<path d="M492.813 373.7C380.954 438.279 199.012 437.949 86.432 372.957C-18.2716 312.502 -26.0656 217.407 63.3799 152.478C70.0604 147.591 77.339 142.87 85.1536 138.354C97.8961 130.993 111.525 124.477 125.897 118.828C237.549 74.6824 391.779 81.4866 491.534 139.076C604.094 204.067 604.671 309.121 492.813 373.7Z" fill="#007C17"/>
<path d="M297.301 145.199L134.225 8C126.954 10.8584 119.873 13.9385 113 17.2376L297.301 145.199Z" fill="#C4FBAA"/>
<path d="M297.322 145.199V239.305L113.5 124L113 17.25L297.322 145.199Z" fill="#7CE949"/>
<path d="M297.324 239.304L24 192C24 192 46 153.5 113.501 124L297.303 239.284L297.324 239.304Z" fill="#04381F"/>
<path d="M358.668 260.799C372.822 260.72 384.264 254.803 384.224 247.583C384.183 240.364 372.676 234.575 358.522 234.654C344.367 234.733 332.925 240.65 332.966 247.87C333.006 255.089 344.513 260.878 358.668 260.799Z" fill="#04381F"/>
<path d="M359.406 120.694L365.179 121.601L366.705 124.941L362.457 127.395L356.684 126.488L355.158 123.148L359.406 120.694Z" fill="#C4FBAA"/>
<path d="M366.704 124.941L370.827 250.924L363.549 255.13L362.456 127.395L366.704 124.941Z" fill="#E5ECE9"/>
<path d="M356.682 126.488L353.651 253.584L363.549 255.13L362.456 127.395L356.682 126.488Z" fill="#C4FBAA"/>
<path d="M355.158 123.147L351.034 247.851L353.653 253.584L356.684 126.488L355.158 123.147Z" fill="#C4FBAA"/>
<path d="M363.406 238.325L363.386 235.975L370.211 232.037L370.293 234.593L363.551 238.346L363.406 238.325Z" fill="#007C17"/>
<path d="M363.282 224.593L363.323 224.614L369.839 220.84L369.922 223.376L363.303 226.985L363.282 224.593Z" fill="#007C17"/>
<path d="M354.436 234.614L363.323 235.995L363.384 235.975L363.405 238.325L354.044 236.861L354.126 233.975L354.436 234.614Z" fill="#007C17"/>
<path d="M354.312 225.521L354.374 223.108L354.436 223.232L363.282 224.593L363.302 226.985L354.312 225.521Z" fill="#007C17"/>
<path d="M354.044 236.861L351.59 230.902L351.652 228.799L354.126 233.975L354.044 236.861Z" fill="#007C17"/>
<path d="M354.374 223.109L354.312 225.521L351.962 219.665L352.024 218.078L352.065 218.057L354.374 223.109Z" fill="#007C17"/>
<path d="M358.745 124.961L359.797 127.91C359.879 128.137 360.024 128.322 360.189 128.405L348.394 121.539C348.23 121.436 348.085 121.271 348.003 121.044L346.951 118.095L358.745 124.961Z" fill="#C4FBAA"/>
<path d="M356.889 109.848C357.363 109.58 357.776 109.559 358.064 109.724L369.859 116.59C369.57 116.425 369.157 116.446 368.683 116.714L360.271 121.56L348.477 114.693L356.889 109.848Z" fill="#E5ECE9"/>
<path d="M348.496 114.714L360.291 121.58C359.157 122.24 358.373 123.951 358.744 124.982L346.95 118.116C346.579 117.106 347.383 115.374 348.496 114.714Z" fill="#C4FBAA"/>
<path d="M360.291 121.56L368.703 116.714C369.837 116.054 370.621 116.879 370.27 118.302L369.239 122.446C369.012 123.354 368.394 124.24 367.672 124.632L361.342 128.281C360.641 128.694 360.002 128.529 359.775 127.89L358.723 124.941C358.352 123.931 359.156 122.199 360.27 121.539L360.291 121.56Z" fill="#7CE949"/>
<path d="M374.911 126.591C374.911 126.591 377.55 127.931 382.004 127.931C386.458 127.931 411.366 125.415 411.366 125.415L378.313 122.9L373.117 124.941L374.911 126.611V126.591Z" fill="#7CE949"/>
<path d="M371.757 123.477L372.788 125.106C372.788 125.106 372.788 125.106 377.221 126.034C376.582 124.384 375.819 122.797 374.932 121.271C373.159 122.467 371.777 123.457 371.777 123.457L371.757 123.477Z" fill="#7CE949"/>
<path d="M413.058 123.477C412.914 122.24 384.666 117.065 382.542 117.127C381.264 117.168 377.614 119.456 374.913 121.292C375.8 122.817 376.583 124.405 377.202 126.055C377.346 126.075 377.47 126.116 377.614 126.137C382.46 127.168 402.192 126.137 408.13 125.725C414.069 125.312 413.182 124.694 413.038 123.477H413.058Z" fill="white"/>
<path d="M368.599 127.807C370.867 128.673 373.321 129.045 375.754 128.921C376.888 126.075 372.723 119.91 370.063 118.137C367.197 116.22 366.64 116.9 366.64 116.9C366.64 116.9 362.826 118.467 361.32 122.529C363.259 124.859 365.774 126.715 368.599 127.787V127.807Z" fill="white"/>
<path d="M368.6 127.808C365.775 126.735 363.239 124.88 361.322 122.55C360.744 124.096 360.476 126.014 360.909 128.344L363.157 132.014L365.487 130.756C365.487 130.756 373.198 132.014 375.384 129.56C375.549 129.375 375.652 129.169 375.755 128.942C373.322 129.065 370.868 128.694 368.6 127.828V127.808Z" fill="#7CE949"/>
<path d="M368.683 61.0221C368.683 61.0221 370.127 85.1051 370.065 87.0846C370.003 89.064 370.065 118.137 370.065 118.137L367.467 72.878L368.683 61.0015V61.0221Z" fill="#E5ECE9"/>
<path d="M360.91 128.344L357.117 134.385L354.704 136.117L325.363 170.943C325.363 170.943 324.105 172.86 324.786 172.963C325.466 173.066 328.332 169.355 328.332 169.355L359.611 135.828L362.189 128.736L360.89 128.344H360.91Z" fill="#E5ECE9"/>
<path d="M329.775 167.706L324.785 172.964C324.785 172.964 353.528 148.056 355.569 145.685C357.611 143.313 365.467 130.736 365.467 130.736V130.097L353.734 140.88L329.775 167.706Z" fill="#7CE949"/>
<path d="M362.21 128.735L357.57 135.705L354.436 137.746C354.436 137.746 323.858 172.283 324.807 172.963C325.755 173.644 356.354 143.066 356.354 143.066L365.509 130.096L362.23 128.735H362.21Z" fill="white"/>
<path d="M364.87 118.158C364.87 118.158 365.695 119.457 367.2 119.519C368.705 119.58 369.448 118.838 369.448 118.838L368.004 61.7028C368.004 61.7028 368.417 60.0739 367.159 59.9914C365.901 59.909 365.757 61.2286 365.344 63.4142C364.932 65.5998 360.499 101.786 360.705 103.972C360.911 106.157 365.076 112.364 365.076 113.725C365.076 115.086 364.87 118.158 364.87 118.158Z" fill="#7CE949"/>
<path d="M365.487 118.158C365.487 118.158 366.312 119.457 367.817 119.519C369.323 119.58 370.065 118.838 370.065 118.838L368.622 61.7028C368.622 61.7028 369.034 60.0739 367.776 59.9914C366.518 59.909 366.374 61.2286 365.962 63.4142C365.549 65.5998 361.116 101.786 361.322 103.972C361.529 106.157 365.694 112.364 365.694 113.725C365.694 115.086 365.487 118.158 365.487 118.158Z" fill="white"/>
<path d="M216.067 334.821C230.222 334.742 241.663 328.825 241.623 321.605C241.583 314.386 230.076 308.597 215.921 308.676C201.767 308.755 190.325 314.672 190.365 321.892C190.405 329.111 201.913 334.9 216.067 334.821Z" fill="#04381F"/>
<path d="M216.82 194.726L222.593 195.613L224.119 198.974L219.871 201.427L214.098 200.52L212.572 197.18L216.82 194.726Z" fill="#C4FBAA"/>
<path d="M224.12 198.974L228.243 324.956L220.965 329.162L219.872 201.427L224.12 198.974Z" fill="#E5ECE9"/>
<path d="M214.096 200.52L211.065 327.616L220.963 329.162L219.87 201.427L214.096 200.52Z" fill="#C4FBAA"/>
<path d="M212.572 197.18L208.448 321.884L211.067 327.616L214.098 200.52L212.572 197.18Z" fill="#C4FBAA"/>
<path d="M220.822 312.358L220.802 310.007L227.627 306.048L227.709 308.626L220.967 312.378L220.822 312.358Z" fill="#007C17"/>
<path d="M220.697 298.626H220.738L227.254 294.873L227.337 297.409L220.718 301.018L220.697 298.626Z" fill="#007C17"/>
<path d="M211.852 308.646L220.739 310.028L220.8 310.007L220.821 312.358L211.46 310.894L211.542 307.986L211.852 308.646Z" fill="#007C17"/>
<path d="M211.727 299.554L211.788 297.141L211.85 297.265L220.696 298.626L220.716 301.017L211.727 299.554Z" fill="#007C17"/>
<path d="M211.46 310.894L209.006 304.914L209.068 302.832L211.542 307.986L211.46 310.894Z" fill="#007C17"/>
<path d="M211.79 297.141L211.728 299.554L209.378 293.698L209.419 292.11L209.481 292.069L211.79 297.141Z" fill="#007C17"/>
<path d="M216.142 198.995L217.193 201.944C217.276 202.17 217.42 202.356 217.585 202.438L205.791 195.572C205.626 195.469 205.482 195.304 205.399 195.077L204.348 192.129L216.142 198.995Z" fill="#C4FBAA"/>
<path d="M214.307 183.881C214.781 183.613 215.194 183.592 215.482 183.757L227.276 190.624C226.988 190.459 226.575 190.479 226.101 190.747L217.689 195.593L205.895 188.727L214.307 183.881Z" fill="#E5ECE9"/>
<path d="M205.915 188.727L217.71 195.593C216.575 196.253 215.792 197.964 216.163 198.995L204.369 192.129C203.998 191.118 204.802 189.386 205.915 188.727Z" fill="#C4FBAA"/>
<path d="M217.709 195.593L226.122 190.747C227.256 190.088 228.04 190.912 227.689 192.335L226.658 196.479C226.431 197.387 225.813 198.273 225.091 198.665L218.761 202.315C218.06 202.727 217.421 202.562 217.194 201.923L216.142 198.974C215.771 197.964 216.575 196.232 217.689 195.572L217.709 195.593Z" fill="#7CE949"/>
<path d="M232.327 200.603C232.327 200.603 234.966 201.943 239.42 201.943C243.874 201.943 268.782 199.428 268.782 199.428L235.729 196.912L230.533 198.953L232.327 200.624V200.603Z" fill="#7CE949"/>
<path d="M229.172 197.51L230.203 199.139C230.203 199.139 230.203 199.139 234.636 200.067C233.997 198.418 233.234 196.83 232.347 195.304C230.574 196.5 229.192 197.49 229.192 197.49L229.172 197.51Z" fill="#7CE949"/>
<path d="M270.473 197.51C270.329 196.273 242.081 191.098 239.957 191.16C238.679 191.201 235.029 193.49 232.328 195.325C233.215 196.851 233.998 198.438 234.617 200.088C234.761 200.108 234.885 200.15 235.029 200.17C239.875 201.201 259.607 200.17 265.545 199.758C271.484 199.345 270.597 198.727 270.453 197.51H270.473Z" fill="white"/>
<path d="M226.016 201.841C228.284 202.707 230.738 203.078 233.171 202.954C234.305 200.109 230.14 193.944 227.48 192.17C224.614 190.253 224.057 190.933 224.057 190.933C224.057 190.933 220.242 192.5 218.737 196.562C220.675 198.892 223.191 200.748 226.016 201.82V201.841Z" fill="white"/>
<path d="M226.016 201.841C223.191 200.769 220.655 198.913 218.738 196.583C218.16 198.129 217.892 200.047 218.325 202.377L220.573 206.047L222.903 204.789C222.903 204.789 230.614 206.047 232.8 203.593C232.965 203.408 233.068 203.202 233.171 202.975C230.738 203.099 228.284 202.727 226.016 201.861V201.841Z" fill="#7CE949"/>
<path d="M226.099 135.055C226.099 135.055 227.543 159.138 227.481 161.117C227.419 163.097 227.481 192.17 227.481 192.17L224.883 146.911L226.099 135.034V135.055Z" fill="#E5ECE9"/>
<path d="M218.326 202.376L214.533 208.418L212.12 210.15L182.779 244.975C182.779 244.975 181.521 246.893 182.202 246.996C182.882 247.099 185.748 243.388 185.748 243.388L217.027 209.861L219.605 202.768L218.306 202.376H218.326Z" fill="#E5ECE9"/>
<path d="M187.192 241.739L182.202 246.996C182.202 246.996 210.945 222.089 212.986 219.717C215.028 217.346 222.884 204.769 222.884 204.769V204.129L211.151 214.913L187.192 241.739Z" fill="#7CE949"/>
<path d="M219.627 202.768L214.987 209.737L211.853 211.779C211.853 211.779 181.275 246.315 182.224 246.996C183.172 247.676 213.771 217.098 213.771 217.098L222.926 204.129L219.647 202.768H219.627Z" fill="white"/>
<path d="M222.284 192.17C222.284 192.17 223.109 193.469 224.614 193.531C226.119 193.593 226.862 192.85 226.862 192.85L225.418 135.715C225.418 135.715 225.831 134.086 224.573 134.004C223.315 133.921 223.171 135.241 222.759 137.426C222.346 139.612 217.913 175.798 218.119 177.984C218.325 180.17 222.491 186.376 222.491 187.737C222.491 189.098 222.284 192.17 222.284 192.17Z" fill="#7CE949"/>
<path d="M222.902 192.17C222.902 192.17 223.727 193.469 225.232 193.531C226.738 193.593 227.48 192.85 227.48 192.85L226.037 135.715C226.037 135.715 226.449 134.086 225.191 134.004C223.933 133.921 223.789 135.241 223.377 137.426C222.964 139.612 218.531 175.798 218.737 177.984C218.944 180.17 223.109 186.376 223.109 187.737C223.109 189.098 222.902 192.17 222.902 192.17Z" fill="white"/>
<path d="M436.364 352.499L499.829 314.457L456.694 289.549L399.95 323.55H374.568V330.808H389.064L388.651 333.694L416.281 357.117H425.869L433.044 353.262L424.879 348.643H429.724L436.384 352.499H436.364ZM412.013 341.406L393.29 330.828H398.796L417.105 341.406H411.992H412.013Z" fill="#04381F"/>
<path d="M369.414 317.776L364.095 320.869L369.744 324.106L375.043 321.034L369.414 317.776Z" fill="#C4FBAA"/>
<path d="M369.745 324.106L375.044 321.034L380.385 324.106L375.085 327.199L369.745 324.106Z" fill="#04381F"/>
<path d="M380.384 324.106L375.085 327.199L405.024 344.478L410.323 341.405L380.384 324.106Z" fill="#C4FBAA"/>
<path d="M405.022 344.478L410.322 341.405L415.662 344.478L410.363 347.57L405.022 344.478Z" fill="#04381F"/>
<path d="M415.664 344.478L410.365 347.57L416.283 350.993L421.603 347.9L415.664 344.478Z" fill="#C4FBAA"/>
<path d="M375.23 277.301L375.086 327.199L380.385 324.106L380.529 274.208L375.23 277.301Z" fill="#C4FBAA"/>
<path d="M416.28 350.993V357.117L421.579 354.045L421.6 347.9L416.28 350.993Z" fill="#C4FBAA"/>
<path d="M410.362 347.57L415.661 344.477L415.764 308.146L410.465 311.239L410.362 347.57Z" fill="#C4FBAA"/>
<path d="M375.207 261.156L369.908 264.249L410.466 311.239L415.765 308.147L375.207 261.156Z" fill="#C4FBAA"/>
<path d="M410.364 347.57L410.467 311.239L369.909 264.249L369.744 324.106L364.115 320.848V326.992L416.281 357.117V350.972L410.364 347.549V347.57ZM375.085 327.198L375.229 277.3L405.127 311.94L405.044 344.498L375.105 327.219L375.085 327.198Z" fill="white"/>
<path d="M425.746 285.528L420.447 288.601L426.076 291.858L431.375 288.786L425.746 285.528Z" fill="#C4FBAA"/>
<path d="M426.078 291.859L431.377 288.787L436.718 291.859L431.418 294.952L426.078 291.859Z" fill="#04381F"/>
<path d="M436.717 291.858L431.418 294.951L461.357 312.23L466.656 309.137L436.717 291.858Z" fill="#C4FBAA"/>
<path d="M461.355 312.23L466.655 309.137L471.995 312.23L466.696 315.302L461.355 312.23Z" fill="#04381F"/>
<path d="M471.995 312.23L466.696 315.302L472.635 318.746L477.934 315.653L471.995 312.23Z" fill="#C4FBAA"/>
<path d="M431.562 245.033L431.418 294.952L436.717 291.859L436.861 241.961L431.562 245.033Z" fill="#C4FBAA"/>
<path d="M472.632 318.746L472.611 324.87L477.91 321.797L477.931 315.653L472.632 318.746Z" fill="#C4FBAA"/>
<path d="M466.693 315.302L471.992 312.23L472.096 275.899L466.796 278.972L466.693 315.302Z" fill="#C4FBAA"/>
<path d="M431.539 228.909L426.24 232.002L466.798 278.972L472.097 275.899L431.539 228.909Z" fill="#C4FBAA"/>
<path d="M466.696 315.303L466.799 278.972L426.241 231.981L426.076 291.838L420.447 288.58V294.725L472.613 324.849V318.705L466.696 315.282V315.303ZM431.417 294.952L431.561 245.053L461.459 279.693L461.376 312.251L431.437 294.972L431.417 294.952Z" fill="white"/>
<path d="M347.482 246.66L343.5 248.959L394.522 337.332L398.504 335.033L347.482 246.66Z" fill="#C4FBAA"/>
<path d="M442.159 192L347.483 246.661L398.505 335.034L493.181 280.372L442.159 192Z" fill="white"/>
<path d="M347.497 246.661L343.518 248.95L438.2 194.289L442.159 192L347.497 246.661Z" fill="#04381F"/>
<path d="M395.941 223.332L375.049 235.394L386.07 254.483L406.962 242.421L395.941 223.332Z" fill="#007C17"/>
<path d="M465.317 238.686L444.425 250.749L455.446 269.837L476.338 257.775L465.317 238.686Z" fill="#04381F"/>
<path d="M453.316 217.904L432.424 229.966L443.445 249.055L464.337 236.992L453.316 217.904Z" fill="#04381F"/>
<path d="M407.942 244.115L387.05 256.177L398.071 275.266L418.963 263.204L407.942 244.115Z" fill="#007C17"/>
<path d="M385.231 257.214L364.321 269.287L375.342 288.375L396.252 276.303L385.231 257.214Z" fill="#007C17"/>
<path d="M373.25 236.431L352.34 248.503L363.361 267.592L384.271 255.52L373.25 236.431Z" fill="#007C17"/>
<path d="M477.317 259.47L456.425 271.532L467.446 290.62L488.338 278.558L477.317 259.47Z" fill="#04381F"/>
<path d="M454.616 272.572L433.724 284.634L444.745 303.723L465.637 291.66L454.616 272.572Z" fill="#04381F"/>
<path d="M409.233 298.78L388.323 310.852L399.344 329.941L420.254 317.868L409.233 298.78Z" fill="#007C17"/>
<path d="M397.242 277.979L376.332 290.052L387.353 309.14L408.263 297.068L397.242 277.979Z" fill="#007C17"/>
<path d="M452.365 216.207L441.334 197.113L424.921 206.577L424.735 216.619L431.457 228.269L452.365 216.207Z" fill="#04381F"/>
<path d="M420.426 209.176L424.735 216.619L424.921 206.578L420.426 209.176Z" fill="#007C17"/>
<path d="M418.632 210.207L397.745 222.269L408.756 241.362L424.426 232.331L424.653 220.64L418.632 210.207Z" fill="#007C17"/>
<path d="M424.655 220.64L424.428 232.331L429.665 229.3L424.655 220.64Z" fill="#04381F"/>
<path d="M430.634 230.99L424.386 234.599L423.912 260.352L441.665 250.083L430.634 230.99Z" fill="#04381F"/>
<path d="M409.747 243.073L420.758 262.166L423.912 260.352L424.387 234.599L409.747 243.073Z" fill="#007C17"/>
<path d="M453.665 270.868L442.634 251.774L423.871 262.62L423.768 267.383L432.757 282.93L453.665 270.868Z" fill="#04381F"/>
<path d="M421.726 263.837L423.767 267.383L423.87 262.62L421.726 263.837Z" fill="#007C17"/>
<path d="M411.045 297.735L422.055 316.828L422.86 316.374L423.334 290.642L411.045 297.735Z" fill="#007C17"/>
<path d="M431.931 285.672L423.333 290.641L422.858 316.374L442.962 304.765L431.931 285.672Z" fill="#04381F"/>
<path d="M423.704 271.404L423.374 288.353L430.962 283.981L423.704 271.404Z" fill="#04381F"/>
<path d="M419.932 264.888L399.024 276.95L410.056 296.044L423.375 288.353L423.705 271.404L419.932 264.888Z" fill="#007C17"/>
<path d="M495.126 52.96L474.846 53V49.16L484.406 41.08C488.366 37.72 489.686 35.8 489.686 33C489.686 29.68 487.886 27.8 484.806 27.8C481.606 27.8 479.606 30.04 479.566 33.8H474.486C474.526 27.4 478.606 23.24 484.806 23.24C491.046 23.24 494.926 26.8 494.926 32.72C494.926 36.8 492.686 39.88 488.246 43.68L482.966 48.2H495.126V52.96ZM513.601 30.88C513.601 35.4 510.401 38.56 505.961 38.56C501.521 38.56 498.321 35.4 498.321 30.88C498.321 26.4 501.521 23.2 505.961 23.2C510.401 23.2 513.601 26.4 513.601 30.88ZM529.641 23.8L507.441 53H502.561L524.761 23.8H529.641ZM509.721 30.88C509.721 28.56 508.201 26.96 505.961 26.96C503.721 26.96 502.241 28.56 502.241 30.88C502.241 33.2 503.761 34.8 505.961 34.8C508.201 34.8 509.721 33.2 509.721 30.88ZM533.921 45.84C533.921 50.32 530.761 53.52 526.321 53.52C521.841 53.52 518.681 50.32 518.681 45.84C518.681 41.36 521.841 38.16 526.321 38.16C530.761 38.16 533.921 41.36 533.921 45.84ZM530.041 45.84C530.041 43.52 528.521 41.92 526.321 41.92C524.081 41.92 522.561 43.52 522.561 45.84C522.561 48.16 524.081 49.76 526.321 49.76C528.521 49.76 530.041 48.16 530.041 45.84ZM477.326 77H475.022V59.648H477.326L483.302 74.24L489.278 59.648H491.63V77H489.326V70.136C489.326 66.896 489.35 65.72 489.47 64.496L484.406 77H482.198L477.158 64.544C477.278 65.384 477.326 67.16 477.326 69.584V77ZM498.958 77.288C496.438 77.288 494.95 75.872 494.95 73.736C494.95 71.576 496.558 70.232 499.318 70.016L503.014 69.728V69.392C503.014 67.424 501.838 66.728 500.254 66.728C498.358 66.728 497.278 67.568 497.278 68.984H495.31C495.31 66.536 497.326 64.928 500.35 64.928C503.254 64.928 505.222 66.464 505.222 69.632V77H503.302L503.062 75.104C502.462 76.448 500.854 77.288 498.958 77.288ZM499.606 75.536C501.742 75.536 503.038 74.144 503.038 71.936V71.312L500.038 71.552C498.046 71.744 497.23 72.512 497.23 73.664C497.23 74.912 498.142 75.536 499.606 75.536ZM515.307 65.168V67.232H514.299C512.163 67.232 510.843 68.528 510.843 70.784V77H508.587V65.288H510.699L510.843 67.064C511.323 65.84 512.499 65.024 514.107 65.024C514.515 65.024 514.851 65.072 515.307 65.168ZM519.967 77H517.711V59.336H519.967V70.784L525.175 65.264H528.007L523.519 69.944L527.983 77H525.391L521.959 71.576L519.967 73.664V77ZM534.709 77.288C531.253 77.288 528.877 74.792 528.877 71.144C528.877 67.472 531.205 64.928 534.613 64.928C537.949 64.928 540.133 67.232 540.133 70.712V71.552L531.061 71.576C531.229 74.048 532.525 75.416 534.757 75.416C536.509 75.416 537.661 74.696 538.045 73.352H540.157C539.581 75.872 537.613 77.288 534.709 77.288ZM534.613 66.824C532.645 66.824 531.397 68 531.109 70.064H537.877C537.877 68.12 536.605 66.824 534.613 66.824ZM546.087 77H543.831V67.16H541.527V65.264H543.831V61.592H546.087V65.264H548.391V67.16H546.087V77ZM474.014 88.328C474.014 85.352 476.414 83.336 479.99 83.336C483.302 83.336 485.438 85.184 485.63 88.184H483.254C483.134 86.456 481.91 85.448 479.966 85.448C477.782 85.448 476.366 86.552 476.366 88.256C476.366 89.648 477.158 90.488 478.79 90.872L481.646 91.544C484.478 92.192 485.918 93.728 485.918 96.176C485.918 99.296 483.494 101.288 479.798 101.288C476.27 101.288 473.918 99.44 473.774 96.464H476.174C476.222 98.12 477.614 99.176 479.798 99.176C482.102 99.176 483.566 98.096 483.566 96.368C483.566 95 482.822 94.136 481.166 93.752L478.31 93.104C475.478 92.456 474.014 90.824 474.014 88.328ZM490.985 100.976H488.729V83.336H490.985V91.064C491.729 89.792 493.145 88.928 494.969 88.928C497.969 88.928 499.409 90.824 499.409 93.824V101H497.153V94.328C497.153 91.952 496.025 90.992 494.345 90.992C492.161 90.992 490.985 92.576 490.985 94.592V100.976ZM506.206 101.288C503.686 101.288 502.198 99.872 502.198 97.736C502.198 95.576 503.806 94.232 506.566 94.016L510.262 93.728V93.392C510.262 91.424 509.086 90.728 507.502 90.728C505.606 90.728 504.526 91.568 504.526 92.984H502.558C502.558 90.536 504.574 88.928 507.598 88.928C510.502 88.928 512.47 90.464 512.47 93.632V101H510.55L510.31 99.104C509.71 100.448 508.102 101.288 506.206 101.288ZM506.854 99.536C508.99 99.536 510.286 98.144 510.286 95.936V95.312L507.286 95.552C505.294 95.744 504.478 96.512 504.478 97.664C504.478 98.912 505.39 99.536 506.854 99.536ZM522.554 89.168V91.232H521.546C519.41 91.232 518.09 92.528 518.09 94.784V101H515.834V89.288H517.946L518.09 91.064C518.57 89.84 519.746 89.024 521.354 89.024C521.762 89.024 522.098 89.072 522.554 89.168ZM529.552 101.288C526.096 101.288 523.72 98.792 523.72 95.144C523.72 91.472 526.048 88.928 529.456 88.928C532.792 88.928 534.976 91.232 534.976 94.712V95.552L525.904 95.576C526.072 98.048 527.368 99.416 529.6 99.416C531.352 99.416 532.504 98.696 532.888 97.352H535C534.424 99.872 532.456 101.288 529.552 101.288ZM529.456 90.824C527.488 90.824 526.24 92 525.952 94.064H532.72C532.72 92.12 531.448 90.824 529.456 90.824Z" fill="white"/>
<line x1="199.006" y1="41.5" x2="451.006" y2="41.5" stroke="#545957"/>
</g>
<defs>
<filter id="filter0_f_63_21977" x="-4.4" y="188.6" width="586.8" height="288.8" filterUnits="userSpaceOnUse" color-interpolation-filters="sRGB">
<feFlood flood-opacity="0" result="BackgroundImageFix"/>
<feBlend mode="normal" in="SourceGraphic" in2="BackgroundImageFix" result="shape"/>
<feGaussianBlur stdDeviation="9.7" result="effect1_foregroundBlur_63_21977"/>
</filter>
<clipPath id="clip0_63_21977">
<rect width="580" height="504" fill="white"/>
</clipPath>
</defs>
</svg>
