<svg width="25" height="24" viewBox="0 0 25 24" fill="none" xmlns="http://www.w3.org/2000/svg">
<g id="Icons">
<path id="Vector" d="M12.668 19C12.3846 19 12.1473 18.904 11.956 18.712C11.764 18.5207 11.668 18.2833 11.668 18V13H6.66797C6.38464 13 6.14697 12.904 5.95497 12.712C5.76364 12.5207 5.66797 12.2833 5.66797 12C5.66797 11.7167 5.76364 11.479 5.95497 11.287C6.14697 11.0957 6.38464 11 6.66797 11H11.668V6C11.668 5.71667 11.764 5.479 11.956 5.287C12.1473 5.09567 12.3846 5 12.668 5C12.9513 5 13.189 5.09567 13.381 5.287C13.5723 5.479 13.668 5.71667 13.668 6V11H18.668C18.9513 11 19.1886 11.0957 19.38 11.287C19.572 11.479 19.668 11.7167 19.668 12C19.668 12.2833 19.572 12.5207 19.38 12.712C19.1886 12.904 18.9513 13 18.668 13H13.668V18C13.668 18.2833 13.5723 18.5207 13.381 18.712C13.189 18.904 12.9513 19 12.668 19Z" fill="#E5ECE9"/>
</g>
</svg>
