<svg width="124" height="96" viewBox="0 0 124 96" fill="none" xmlns="http://www.w3.org/2000/svg">
<g clip-path="url(#clip0_36_654)">
<path d="M54.1653 96L10.9585 70.9985L64.9043 39.7919L108.111 64.7855L54.1653 96Z" fill="#021F12"/>
<path d="M52.9502 86.4801L0 55.8468L66.1192 17.5945L119.069 48.2278L52.9502 86.4801Z" fill="#04381F"/>
<path d="M119.069 45.2666L52.9502 83.5189L0 52.8856L23.3984 39.352L55.3724 20.8464L66.1192 14.6333L119.069 45.2666Z" fill="#7CE949"/>
<path d="M87.362 57.8576C72.7115 66.3328 48.8976 66.2857 34.1531 57.7634C25.46 52.7285 21.8699 45.8714 23.3984 39.352L55.3724 20.8463C66.6444 19.9666 78.4965 22.0481 87.1896 27.0751C101.934 35.6053 102.005 49.3824 87.362 57.8576Z" fill="#007C17"/>
<path d="M96.5019 24.6323H95.82C93.97 21.624 90.9678 18.8041 86.8055 16.3927C71.8885 7.75258 47.7924 7.70545 32.9773 16.2906C28.7836 18.7256 25.7814 21.5847 23.9707 24.6323C23.8609 24.6166 22.787 24.381 23.1162 19.4168C23.4533 14.2013 32.9303 7.44625 32.9303 7.44625C43.8495 0.172805 63.0465 0.777617 63.0465 0.777617C63.0465 0.777617 76.0195 2.0815 81.3968 4.54001C86.7663 6.99068 95.9846 16.2514 95.9846 16.2514L96.5019 24.6323Z" fill="#7CE949"/>
<path d="M0 55.8468V52.8856L52.9502 83.5189V86.4801" fill="#7CE949"/>
<path opacity="0.2" d="M85.1045 40.4045C71.3476 48.3613 48.9761 48.322 35.133 40.3103C21.2899 32.2985 21.2193 19.3618 34.9762 11.405C48.7331 3.4482 71.1046 3.48748 84.9477 11.4993C98.7908 19.511 98.8614 32.4477 85.1045 40.4045Z" fill="white"/>
<path d="M21.9169 31.678C21.862 37.3883 25.6089 43.1222 33.1497 47.4894C48.0589 56.1296 72.155 56.1767 86.9779 47.5837C94.4168 43.2715 98.101 37.6083 98.0383 31.9372V22.056L96.6038 24.9229C91.6576 34.812 81.969 41.4492 70.9713 42.4625L59.7856 43.4993L45.0488 40.9229C36.6223 39.4462 29.2539 34.3643 24.8721 27.0044L21.9248 22.056V31.678H21.9169Z" fill="#7CE949"/>
<path d="M86.9231 6.51151C71.9825 -2.12864 47.8394 -2.17577 33.0008 6.41726C18.1622 15.0103 18.2327 28.9759 33.1733 37.6161C48.1138 46.2562 72.2569 46.3034 87.0955 37.7103C101.934 29.1173 101.864 15.1517 86.9231 6.51151ZM85.0104 36.5007C71.3084 44.4261 49.0231 44.3868 35.2348 36.4143C21.4466 28.4418 21.3761 15.5444 35.0781 7.61902C48.7801 -0.306357 71.0654 -0.267082 84.8537 7.70543C98.6419 15.6779 98.7124 28.5753 85.0104 36.5007Z" fill="#C4FBAA"/>
<path d="M91.7752 39.0221C91.7752 41.0094 90.3721 43.4365 88.6397 44.434C86.9074 45.4315 85.5043 44.6304 85.5043 42.6431C85.5043 40.6559 86.9074 38.2288 88.6397 37.2313C90.3721 36.2337 91.7752 37.0349 91.7752 39.0221Z" fill="#C4FBAA"/>
<path d="M122.636 55.2891L91.0776 37.1605L88.6476 37.2391L85.6689 41.4413V44.1198L118.348 62.8768L122.636 55.2891Z" fill="#C4FBAA"/>
<path d="M124 57.4727C124 59.46 122.597 61.8871 120.865 62.8846C119.132 63.8822 117.729 63.081 117.729 61.0938C117.729 59.1065 119.132 56.6794 120.865 55.6819C122.597 54.6843 124 55.4855 124 57.4727Z" fill="#007C17"/>
<path d="M119.069 48.2278V45.2665L115.55 47.3009L116.044 48.3377L119.069 48.2278Z" fill="#04381F"/>
</g>
<defs>
<clipPath id="clip0_36_654">
<rect width="124" height="96" fill="white"/>
</clipPath>
</defs>
</svg>
