<svg width="631" height="373" viewBox="0 0 631 373" fill="none" xmlns="http://www.w3.org/2000/svg">
<g clip-path="url(#clip0_36_1349)">
<path d="M425.349 370.201L46.252 151.329C39.1407 147.224 40.033 140.057 48.2426 135.307L218.667 36.9157C226.877 32.1794 239.301 31.6577 246.413 35.7625L625.51 254.635C632.621 258.74 631.729 265.906 623.519 270.656L453.094 369.048C444.885 373.784 432.46 374.306 425.349 370.201Z" fill="#021F12"/>
<g opacity="0.15" filter="url(#filter0_f_36_1349)">
<path d="M425.349 343.207L46.252 124.334C39.1407 120.23 40.033 113.063 48.2426 108.313L218.667 9.92171C226.877 5.1854 239.301 4.66372 246.413 8.76852L625.51 227.641C632.621 231.746 631.729 238.912 623.519 243.662L453.094 342.054C444.885 346.79 432.46 347.312 425.349 343.207Z" fill="#C4FBAA"/>
</g>
<path d="M425.348 337.898L46.2511 119.026C39.1398 114.921 40.0322 107.754 48.2418 103.004L218.667 4.61275C226.876 -0.123556 239.3 -0.645237 246.412 3.45956L625.509 222.332C632.62 226.437 631.728 233.603 623.518 238.353L453.093 336.745C444.884 341.481 432.459 342.003 425.348 337.898Z" fill="#04381F" stroke="#7CE949" stroke-width="1.37284" stroke-miterlimit="10"/>
<path d="M519.155 266.716L467.069 236.651C460.631 232.93 461.441 226.45 468.868 222.153L516.876 194.436C524.303 190.152 535.547 189.686 541.985 193.392L594.071 223.458C600.51 227.178 599.7 233.658 592.273 237.955L544.264 265.673C536.837 269.956 525.594 270.423 519.155 266.716Z" fill="#021F12"/>
<path d="M430.208 215.358L257.312 115.539C250.874 111.818 251.684 105.338 259.111 101.041L307.119 73.3236C314.546 69.0404 325.79 68.5736 332.228 72.2803L505.124 172.1C511.563 175.82 510.753 182.3 503.326 186.597L455.318 214.315C447.891 218.598 436.647 219.065 430.208 215.358Z" fill="#021F12"/>
<path d="M172.209 125.08L120.123 95.0145C113.685 91.2941 114.495 84.8142 121.922 80.5172L220.753 23.4619C228.18 19.1786 239.423 18.7118 245.862 22.4185L297.948 52.4838C304.386 56.2042 303.576 62.684 296.149 66.981L197.318 124.036C189.891 128.32 178.648 128.786 172.209 125.08Z" fill="#021F12"/>
<path d="M551.238 235.388C543.028 240.124 509.997 241.936 509.997 241.936C509.997 241.936 513.128 222.867 521.337 218.131C529.547 213.395 542.891 213.422 551.142 218.186C559.392 222.95 559.434 230.651 551.238 235.401V235.388Z" fill="#007C17"/>
<path d="M314.231 91.0881L327.177 87.6011L328.893 88.5895L322.853 96.0715L321.082 95.0556L322.509 93.3396L318.94 91.2803L315.975 92.104L314.231 91.1018V91.0881ZM320.834 90.7449L323.429 92.2413L325.392 89.8388C325.557 89.6466 325.763 89.427 325.928 89.3034C325.708 89.3858 325.337 89.5093 324.994 89.6054L320.848 90.7449H320.834Z" fill="#007C17"/>
<path d="M330.239 92.9139L331.721 93.7651L330.856 94.3829C331.982 94.177 333.273 94.4241 334.247 94.9869C336.059 96.0303 335.963 97.4855 333.945 98.6524C331.941 99.8056 329.387 100.012 327.465 98.8995C326.491 98.3367 326.038 97.6365 326.285 97.0325L322.455 99.2427L320.862 98.3229L330.252 92.9002L330.239 92.9139ZM328.509 97.8699C329.634 98.5151 331.103 98.4465 332.257 97.7738C333.396 97.1148 333.547 96.2499 332.421 95.6047C331.323 94.9732 329.799 95.0144 328.646 95.6871C327.493 96.3598 327.41 97.2247 328.509 97.8562V97.8699Z" fill="#007C17"/>
<path d="M338.324 97.5817L339.807 98.4328L338.942 99.0506C340.068 98.8447 341.358 99.0918 342.333 99.6546C344.145 100.698 344.049 102.153 342.031 103.32C340.026 104.473 337.473 104.679 335.551 103.567C334.576 103.004 334.123 102.304 334.37 101.7L330.54 103.91L328.948 102.991L338.338 97.5679L338.324 97.5817ZM336.594 102.538C337.72 103.183 339.189 103.114 340.342 102.442C341.482 101.783 341.633 100.918 340.507 100.272C339.409 99.6409 337.885 99.6821 336.732 100.355C335.578 101.027 335.496 101.892 336.608 102.524L336.594 102.538Z" fill="#007C17"/>
<path d="M340.027 105.983L349.692 100.41L351.27 101.329L341.606 106.903L340.027 105.983Z" fill="#007C17"/>
<path d="M349.705 104.158L351.298 105.077L344.887 108.784L343.294 107.864L349.705 104.158ZM351.764 102.757C352.3 102.455 353.151 102.455 353.7 102.771C354.222 103.073 354.236 103.567 353.7 103.869C353.165 104.171 352.314 104.171 351.778 103.869C351.229 103.553 351.229 103.059 351.764 102.744V102.757Z" fill="#007C17"/>
<path d="M355.993 107.562C357.764 108.578 357.984 109.841 356.611 110.83L355.018 109.91C355.567 109.388 355.403 108.853 354.648 108.413C353.632 107.823 352.176 107.878 350.968 108.578C349.76 109.278 349.637 110.074 350.653 110.665C351.449 111.118 352.396 111.228 353.275 110.912L354.881 111.845C353.192 112.6 350.913 112.463 349.225 111.488C347.262 110.349 347.33 108.839 349.376 107.658C351.367 106.519 354.085 106.464 355.993 107.562Z" fill="#007C17"/>
<path d="M355.265 112.655C356.446 111.969 358.052 112.038 359.699 112.861L361.772 113.891L361.909 113.809C362.774 113.301 362.61 112.807 361.8 112.34C360.852 111.791 359.946 111.722 359.274 112.106L357.914 111.324C359.301 110.528 361.36 110.665 363.118 111.667C364.861 112.669 364.998 113.836 363.214 114.852L359.315 117.104L357.914 116.294L358.738 115.676C357.805 115.895 356.473 115.662 355.457 115.072C354.084 114.275 354.043 113.342 355.251 112.642L355.265 112.655ZM360.372 114.728L360.715 114.536L359.26 113.822C358.175 113.301 357.475 113.273 356.953 113.575C356.363 113.919 356.473 114.303 357.201 114.715C358.175 115.278 359.397 115.305 360.386 114.742L360.372 114.728Z" fill="#007C17"/>
<path d="M360.895 118.023L367.306 114.317L368.789 115.168L368.088 115.717C369.145 115.58 370.312 115.813 371.177 116.321C372.797 117.254 372.632 118.312 370.971 119.272L367.018 121.551L365.425 120.632L368.994 118.572C370.065 117.955 370.052 117.337 369.228 116.87C368.253 116.307 366.976 116.348 365.933 116.952L362.473 118.943L360.881 118.023H360.895Z" fill="#007C17"/>
<path d="M369.2 122.814L374.293 119.877L373.044 119.163L374.375 118.394L375.625 119.108L377.629 117.955L379.222 118.874L377.217 120.028L378.48 120.755L377.149 121.524L375.885 120.796L370.792 123.734L369.2 122.814Z" fill="#007C17"/>
<path d="M374.06 124.613C374.637 124.283 375.584 124.297 376.161 124.613C376.737 124.942 376.751 125.491 376.188 125.821C375.625 126.137 374.678 126.137 374.101 125.807C373.525 125.478 373.511 124.929 374.074 124.599L374.06 124.613ZM378.783 121.881C379.359 121.551 380.307 121.565 380.883 121.881C381.46 122.21 381.473 122.76 380.911 123.089C380.348 123.405 379.4 123.405 378.824 123.075C378.247 122.746 378.234 122.197 378.796 121.867L378.783 121.881Z" fill="#007C17"/>
<path d="M307.092 99.5586C309.027 100.671 309.192 102.002 307.531 103.018L305.856 102.043C306.639 101.549 306.529 100.931 305.581 100.382C304.552 99.792 303.385 99.6822 302.589 100.149C301.916 100.533 301.902 100.973 302.52 101.536L303.701 102.593C304.991 103.732 304.95 104.679 303.536 105.503C301.765 106.519 299.239 106.382 297.138 105.16C295.093 103.979 294.846 102.593 296.507 101.59L298.182 102.551C297.386 103.018 297.564 103.677 298.635 104.295C299.747 104.94 300.928 105.064 301.724 104.611C302.355 104.24 302.41 103.842 301.792 103.293L300.612 102.222C299.335 101.082 299.417 100.053 300.873 99.2154C302.534 98.2544 305.074 98.3917 307.092 99.5449V99.5586Z" fill="#007C17"/>
<path d="M302.685 108.166L307.778 105.229L306.529 104.515L307.861 103.746L309.11 104.46L311.114 103.307L312.707 104.226L310.702 105.38L311.965 106.107L310.634 106.876L309.371 106.148L304.278 109.086L302.685 108.166Z" fill="#007C17"/>
<path d="M308.039 109.141C309.22 108.455 310.826 108.523 312.474 109.347L314.547 110.377L314.684 110.294C315.549 109.786 315.384 109.292 314.574 108.812C313.627 108.262 312.721 108.194 312.048 108.578L310.689 107.796C312.075 106.999 314.135 107.137 315.892 108.139C317.636 109.141 317.773 110.308 315.988 111.324L312.089 113.575L310.689 112.765L311.526 112.148C310.593 112.367 309.261 112.134 308.245 111.544C306.872 110.747 306.831 109.814 308.039 109.114V109.141ZM313.146 111.2L313.49 111.008L312.034 110.294C310.95 109.773 310.25 109.745 309.728 110.047C309.138 110.39 309.247 110.775 309.975 111.187C310.95 111.749 312.172 111.777 313.16 111.214L313.146 111.2Z" fill="#007C17"/>
<path d="M314.161 114.797L319.254 111.859L318.005 111.145L319.337 110.377L320.586 111.091L322.59 109.937L324.183 110.857L322.179 112.01L323.442 112.738L322.11 113.507L320.847 112.779L315.754 115.717L314.161 114.797Z" fill="#007C17"/>
<path d="M330.402 116.76L323.991 120.467L322.509 119.616L323.25 119.053C322.248 119.177 320.998 118.93 320.134 118.435C318.637 117.57 318.761 116.486 320.339 115.58L324.348 113.26L325.941 114.18L322.481 116.17C321.259 116.87 321.246 117.433 322.138 117.955C323.14 118.531 324.211 118.477 325.433 117.776L328.796 115.827L330.389 116.747L330.402 116.76Z" fill="#007C17"/>
<path d="M328.481 120.81C327.932 121.14 328 121.579 328.742 122.005C329.483 122.43 330.197 122.499 330.664 122.224C330.993 122.032 331.048 121.799 330.609 121.401L329.716 120.577C328.81 119.753 328.797 119.108 329.826 118.518C331.089 117.79 332.915 117.968 334.398 118.833C335.853 119.671 336.004 120.714 334.768 121.442L333.258 120.563C333.794 120.234 333.78 119.822 333.162 119.465C332.531 119.108 331.885 119.053 331.405 119.328C331.048 119.533 331.103 119.835 331.515 120.234L332.407 121.057C333.245 121.826 333.3 122.43 332.311 122.993C331.007 123.748 329.099 123.57 327.506 122.65C325.9 121.716 325.735 120.632 326.998 119.904L328.508 120.783L328.481 120.81Z" fill="#007C17"/>
<path d="M332.572 124.421C333.148 124.091 334.095 124.105 334.672 124.421C335.249 124.75 335.262 125.299 334.7 125.629C334.137 125.945 333.189 125.945 332.613 125.615C332.036 125.286 332.022 124.736 332.585 124.407L332.572 124.421ZM337.308 121.689C337.885 121.359 338.832 121.373 339.408 121.689C339.985 122.018 339.999 122.567 339.436 122.897C338.873 123.213 337.926 123.213 337.349 122.883C336.773 122.554 336.759 122.005 337.322 121.675L337.308 121.689Z" fill="#007C17"/>
<path d="M236.431 81.1214L196.399 58.0027C192.761 55.9023 193.214 52.2368 197.415 49.8206L226.437 33.0582C230.638 30.6282 236.981 30.3674 240.619 32.4678L280.651 55.5865C284.289 57.687 283.836 61.3525 279.635 63.7687L250.613 80.5311C246.412 82.961 240.069 83.2219 236.431 81.1214Z" fill="#04381F"/>
<path d="M400.212 282.559L25.1371 66.0063C18.0257 61.9015 18.9181 54.7353 27.1277 49.9852L82.9338 17.7783C91.1434 13.042 103.568 12.5204 110.679 16.6252L485.753 233.177C492.865 237.282 491.972 244.449 483.763 249.199L427.957 281.419C419.747 286.155 407.323 286.677 400.212 282.572V282.559Z" fill="#7CE949"/>
<path d="M400.212 274.431L25.1371 57.879C18.0257 53.7742 18.9181 46.608 27.1277 41.8579L82.9338 9.65102C91.1434 4.91471 103.568 4.39303 110.679 8.49783L485.753 225.05C492.865 229.155 491.972 236.321 483.763 241.071L427.957 273.292C419.747 278.028 407.323 278.55 400.212 274.445V274.431Z" fill="#007C17"/>
<path d="M202.123 145.659L44.6995 54.7627C41.4321 52.8819 41.844 49.5871 45.6193 47.4043L92.4058 20.3867C96.1811 18.2039 101.878 17.9705 105.146 19.8651L262.57 110.747C265.837 112.628 265.425 115.923 261.65 118.106L214.863 145.123C211.088 147.306 205.391 147.539 202.123 145.645V145.659Z" fill="#7CE949" stroke="#7CE949" stroke-width="1.37284" stroke-miterlimit="10"/>
<path d="M439.242 238.641L271.412 141.746C266.868 139.124 267.431 134.539 272.689 131.505C277.933 128.471 285.882 128.141 290.426 130.763L458.256 227.659C462.8 230.281 462.237 234.866 456.979 237.9C451.735 240.934 443.786 241.263 439.242 238.641Z" stroke="#7CE949" stroke-width="1.37284" stroke-miterlimit="10"/>
<path d="M407.57 256.928L239.74 160.032C235.196 157.41 235.759 152.825 241.017 149.791C246.261 146.757 254.21 146.427 258.754 149.05L426.584 245.945C431.128 248.567 430.565 253.152 425.307 256.186C420.063 259.22 412.114 259.55 407.57 256.928Z" fill="#04381F"/>
<path d="M376.722 221.522L422.122 247.73C424.854 249.308 424.511 252.068 421.353 253.894C418.196 255.72 413.418 255.912 410.686 254.333L365.286 228.125C362.554 226.547 362.898 223.787 366.055 221.961C369.213 220.135 373.99 219.943 376.722 221.522Z" fill="#007C17"/>
<path d="M408.381 203.249L453.781 229.457C456.513 231.036 456.169 233.795 453.012 235.621C449.854 237.447 445.077 237.639 442.345 236.06L396.945 209.853C394.213 208.274 394.556 205.515 397.714 203.689C400.871 201.863 405.649 201.671 408.381 203.249Z" fill="#04381F"/>
<path d="M278.495 140.964C276.806 139.838 276.697 138.561 278.234 137.628L279.909 138.602C279.181 139.042 279.195 139.591 279.95 140.14L282.723 138.547L282.394 138.259C281.09 137.106 281.186 136.104 282.614 135.28C284.137 134.401 286.375 134.443 288.297 135.335L289.395 134.703L290.398 135.28L289.299 135.912C290.782 136.955 290.768 138.136 289.272 139.069L287.652 138.136C288.325 137.71 288.393 137.23 287.858 136.749L285.071 138.355L285.414 138.671C286.718 139.852 286.677 140.744 285.304 141.54C283.726 142.46 281.502 142.433 279.552 141.54L278.454 142.172L277.452 141.595L278.536 140.977L278.495 140.964ZM283.506 139.22L280.966 140.689C281.9 141.046 282.833 141.06 283.492 140.689C284.151 140.305 284.179 139.852 283.561 139.303L283.492 139.234L283.506 139.22ZM284.261 137.628L286.842 136.131C285.922 135.747 284.989 135.747 284.288 136.159C283.602 136.557 283.561 136.996 284.22 137.586L284.261 137.628Z" fill="#04381F"/>
<path d="M291.428 139.014L292.924 138.149L296.631 140.291L287.131 145.769L285.525 144.835L293.528 140.209L291.428 139V139.014Z" fill="#04381F"/>
<path d="M302.479 143.448C304.923 144.862 304.539 146.949 301.587 148.652C298.649 150.34 295.176 150.601 292.636 149.132C290.096 147.663 290.549 145.672 293.487 143.97C296.439 142.268 300.036 142.034 302.479 143.448ZM294.091 148.295C295.601 149.173 297.729 148.967 299.926 147.704C302.177 146.4 302.52 145.178 300.997 144.3C299.487 143.435 297.372 143.627 295.121 144.931C292.924 146.194 292.581 147.43 294.091 148.295Z" fill="#04381F"/>
<path d="M311.691 148.775C314.135 150.189 313.75 152.276 310.799 153.978C307.861 155.667 304.388 155.928 301.848 154.459C299.308 152.99 299.761 150.999 302.699 149.297C305.651 147.594 309.247 147.361 311.691 148.775ZM303.317 153.608C304.841 154.486 306.955 154.28 309.151 153.017C311.403 151.713 311.746 150.491 310.222 149.613C308.712 148.748 306.598 148.94 304.346 150.244C302.15 151.507 301.807 152.743 303.317 153.608Z" fill="#04381F"/>
<path d="M320.916 154.102C323.36 155.516 322.975 157.603 320.024 159.305C317.086 160.993 313.613 161.254 311.073 159.785C308.533 158.316 308.986 156.312 311.924 154.623C314.876 152.921 318.473 152.688 320.916 154.102ZM312.528 158.934C314.038 159.813 316.166 159.607 318.363 158.344C320.614 157.04 320.957 155.818 319.433 154.939C317.923 154.074 315.809 154.267 313.558 155.571C311.361 156.834 311.018 158.069 312.528 158.934Z" fill="#04381F"/>
<path d="M247.112 159.071C245.424 157.946 245.314 156.669 246.852 155.735L248.526 156.696C247.799 157.136 247.813 157.685 248.568 158.234L251.341 156.641L251.011 156.353C249.707 155.2 249.803 154.198 251.231 153.374C252.755 152.495 254.992 152.537 256.914 153.429L258.013 152.797L259.015 153.374L257.917 154.005C259.399 155.049 259.386 156.229 257.889 157.163L256.269 156.229C256.942 155.804 257.011 155.323 256.475 154.843L253.688 156.449L254.031 156.765C255.349 157.946 255.295 158.852 253.922 159.634C252.343 160.554 250.119 160.526 248.169 159.634L247.071 160.266L246.069 159.689L247.154 159.071H247.112ZM252.123 157.341L249.583 158.81C250.517 159.167 251.451 159.181 252.11 158.81C252.768 158.426 252.796 157.973 252.178 157.424L252.11 157.355L252.123 157.341ZM252.878 155.749L255.459 154.253C254.539 153.868 253.606 153.868 252.906 154.28C252.219 154.678 252.178 155.117 252.837 155.708L252.878 155.749Z" fill="#C4FBAA"/>
<path d="M252.206 161.844L253.455 161.131L259.207 161.419C261.596 161.529 262.653 161.419 263.559 160.897C264.63 160.279 264.658 159.579 263.655 159.003C262.612 158.399 261.225 158.44 259.99 159.14L258.329 158.179C260.415 156.985 263.106 156.971 265.124 158.152C267.17 159.332 267.28 160.732 265.358 161.844C264.026 162.613 262.296 162.764 259.619 162.641L256.421 162.49L260.402 164.782L258.85 165.675L252.206 161.858V161.844Z" fill="#C4FBAA"/>
<path d="M267.773 168.736L265.961 169.779L264.382 168.86L266.194 167.816L261.335 165.016L262.79 164.178L273.361 163.08L275.461 164.302L269.228 167.899L270.395 168.571L268.94 169.409L267.773 168.736ZM267.636 166.993L272.084 164.425L264.574 165.222L267.65 166.993H267.636Z" fill="#C4FBAA"/>
<path d="M281.9 167.803C284.343 169.217 283.959 171.303 281.007 173.006C278.069 174.694 274.596 174.955 272.056 173.486C269.517 172.017 269.97 170.013 272.907 168.324C275.859 166.622 279.456 166.389 281.9 167.803ZM273.512 172.649C275.022 173.527 277.15 173.321 279.346 172.058C281.598 170.754 281.941 169.532 280.417 168.654C278.907 167.789 276.793 167.981 274.541 169.285C272.345 170.548 272.001 171.784 273.512 172.649Z" fill="#C4FBAA"/>
<path d="M291.112 173.129C293.556 174.543 293.171 176.63 290.22 178.332C287.282 180.021 283.809 180.282 281.269 178.813C278.729 177.344 279.196 175.353 282.12 173.651C285.072 171.949 288.669 171.715 291.112 173.129ZM282.738 177.962C284.262 178.84 286.376 178.634 288.572 177.371C290.824 176.067 291.167 174.845 289.643 173.967C288.147 173.102 286.019 173.294 283.767 174.598C281.571 175.861 281.228 177.097 282.738 177.962Z" fill="#C4FBAA"/>
<path d="M65.0458 56.4787C61.4901 54.4194 61.9294 50.8363 66.0479 48.4613L94.5619 32.0009C98.6667 29.6259 104.886 29.365 108.441 31.4243C111.997 33.4835 111.558 37.0667 107.439 39.4417L78.9252 55.9021C74.8204 58.2771 68.6014 58.5379 65.0458 56.4787Z" fill="#007C17"/>
<path d="M87.6843 69.5482C84.1286 67.4889 84.5679 63.9058 88.6864 61.5308L103.156 53.1839C107.261 50.8089 113.48 50.5481 117.036 52.6073C120.591 54.6666 120.152 58.2497 116.033 60.6247L101.564 68.9716C97.4589 71.3466 91.2399 71.6075 87.6843 69.5482Z" fill="#007C17"/>
<path d="M110.321 82.6315C106.766 80.5722 107.205 76.9891 111.324 74.6141L133.825 61.6132C137.929 59.2382 144.148 58.9774 147.704 61.0366C151.26 63.0959 150.82 66.679 146.702 69.054L124.201 82.0549C120.096 84.4299 113.877 84.6907 110.321 82.6315Z" fill="#007C17"/>
<path d="M132.96 95.7009C129.404 93.6417 129.844 90.0585 133.962 87.6835L135.774 86.6402C139.879 84.2651 146.098 84.0043 149.654 86.0636C153.209 88.1228 152.77 91.7059 148.652 94.081L146.839 95.1243C142.735 97.4993 136.516 97.7602 132.96 95.7009Z" fill="#007C17"/>
<path d="M155.598 108.77C152.043 106.711 152.482 103.128 156.601 100.753L168.215 94.0398C172.32 91.6648 178.539 91.404 182.094 93.4632C185.65 95.5225 185.211 99.1056 181.092 101.481L169.478 108.194C165.373 110.569 159.154 110.83 155.598 108.77Z" fill="#007C17"/>
<path d="M178.237 121.84C174.681 119.78 175.121 116.197 179.239 113.822L207.753 97.362C211.858 94.9869 218.077 94.7261 221.633 96.7854C225.188 98.8446 224.749 102.428 220.63 104.803L192.116 121.263C188.012 123.638 181.793 123.899 178.237 121.84Z" fill="#007C17"/>
<path d="M200.874 134.909C197.318 132.85 197.758 129.267 201.876 126.892L218.378 117.364C222.483 114.989 228.702 114.729 232.257 116.788C235.813 118.847 235.374 122.43 231.255 124.805L214.754 134.333C210.649 136.708 204.43 136.969 200.874 134.909Z" fill="#007C17"/>
<path d="M604.765 114.948C586.836 146.002 543.056 171.166 506.977 171.166C470.899 171.166 456.182 146.002 474.111 114.948C492.041 83.8943 535.821 58.7301 571.899 58.7301C607.977 58.7301 622.694 83.8943 604.765 114.948Z" fill="#007C17"/>
<path d="M599.205 103.677C581.276 134.731 537.496 159.895 501.417 159.895C465.339 159.895 450.622 134.731 468.552 103.677C486.481 72.6233 530.261 47.4591 566.339 47.4591C602.418 47.4591 617.134 72.6233 599.205 103.677Z" fill="#C4FBAA"/>
<path d="M587.494 103.251C572.723 128.841 536.631 149.599 506.895 149.599C477.159 149.599 465.023 128.855 479.809 103.251C494.58 77.6617 530.672 56.9043 560.408 56.9043C590.144 56.9043 602.28 77.648 587.494 103.251Z" fill="#7CE949"/>
<path d="M593.096 76.7007C587.413 71.3466 578.489 68.1891 566.903 68.1891C537.167 68.1891 501.075 88.9327 486.289 114.523C480.592 124.393 478.89 133.55 480.674 141.073C471.765 132.672 470.762 118.861 479.782 103.251C494.567 77.6617 530.646 56.9043 560.395 56.9043C578.654 56.9043 590.282 64.7295 593.096 76.7007Z" fill="#007C17"/>
<path d="M80.4477 275.434C53.0732 275.434 19.7131 256.09 5.94353 232.23C-7.82609 208.37 3.19784 189.027 30.5723 189.027C57.9468 189.027 91.3069 208.37 105.077 232.23C118.846 256.09 107.822 275.434 80.4477 275.434Z" fill="#007C17"/>
<path d="M85.7742 267.471C58.3997 267.471 25.0396 248.128 11.27 224.268C-2.49962 200.408 8.52432 181.064 35.8988 181.064C63.2733 181.064 96.6334 200.408 110.403 224.268C124.173 248.128 113.149 267.471 85.7742 267.471Z" fill="#C4FBAA"/>
<path d="M81.573 259.55C59.0034 259.55 31.5054 243.611 20.152 223.938C8.79857 204.265 17.8868 188.327 40.4563 188.327C63.0259 188.327 90.5239 204.265 101.877 223.938C113.231 243.611 104.143 259.55 81.573 259.55Z" fill="#7CE949"/>
<path d="M101.274 253.125C102.647 247.318 101.329 240.22 96.9087 232.56C85.5553 212.901 58.0573 196.948 35.4877 196.948C26.7839 196.948 20.0707 199.323 15.7874 203.373C17.9428 194.285 26.6878 188.34 40.4574 188.34C63.027 188.34 90.525 204.279 101.878 223.952C108.852 236.033 108.111 246.7 101.274 253.139V253.125Z" fill="#007C17"/>
</g>
<defs>
<filter id="filter0_f_36_1349" x="32.4512" y="-3" width="606.859" height="357.975" filterUnits="userSpaceOnUse" color-interpolation-filters="sRGB">
<feFlood flood-opacity="0" result="BackgroundImageFix"/>
<feBlend mode="normal" in="SourceGraphic" in2="BackgroundImageFix" result="shape"/>
<feGaussianBlur stdDeviation="4.5" result="effect1_foregroundBlur_36_1349"/>
</filter>
<clipPath id="clip0_36_1349">
<rect width="631" height="372.974" fill="white"/>
</clipPath>
</defs>
</svg>
