<svg width="637" height="491" viewBox="0 0 637 491" fill="none" xmlns="http://www.w3.org/2000/svg">
<g clip-path="url(#clip0_36_1348)">
<path d="M311.337 42.7243L274.901 63.7615V21.9472L311.337 0.910034V42.7243Z" fill="#7CE949"/>
<path d="M311.468 42.5589L275.031 63.5961V21.7818L311.468 0.744629V42.5589Z" fill="#7CE949"/>
<path d="M311.456 42.6534L275.02 21.6163L311.22 0.720947L347.657 21.7463L311.456 42.6534Z" fill="#007C17" stroke="#7CE949" stroke-width="1.18186" stroke-miterlimit="10"/>
<path d="M310.865 42.8645V83.3141L275.61 62.9593V22.5097L310.865 42.8645Z" fill="#04381F" stroke="#7CE949" stroke-width="1.18186" stroke-miterlimit="10"/>
<path d="M347.657 63.5014L311.22 84.5267V42.7243L347.657 21.6871V63.5014Z" fill="#7CE949"/>
<path d="M447.89 116.981L329.444 53.1129" stroke="#007C17" stroke-width="1.18186" stroke-miterlimit="10"/>
<path d="M175.518 121.543L139.081 142.58V100.766L175.518 79.7284V121.543Z" fill="#7CE949"/>
<path d="M175.648 121.377L139.212 142.414V100.6L175.648 79.563V121.377Z" fill="#7CE949"/>
<path d="M175.625 120.789L140.382 100.435L175.401 80.2098L210.655 100.565L175.625 120.789Z" fill="#007C17" stroke="#7CE949" stroke-width="1.18186" stroke-miterlimit="10"/>
<path d="M175.034 121.683V162.132L139.791 141.778V101.328L175.034 121.683Z" fill="#04381F" stroke="#7CE949" stroke-width="1.18186" stroke-miterlimit="10"/>
<path d="M211.837 142.308L175.4 163.345V121.543L211.837 100.505V142.308Z" fill="#7CE949"/>
<path d="M67.7793 184.122L157.294 131.695" stroke="#7CE949" stroke-width="1.18186" stroke-miterlimit="10"/>
<path d="M299.165 191.013L193.625 131.931" stroke="#007C17" stroke-width="1.18186" stroke-miterlimit="10"/>
<path d="M191.663 78.4047V94.8326H177.811V78.4047C177.811 75.7337 179.324 73.4173 181.546 72.259C182.054 71.9872 182.61 71.7863 183.177 71.6563C183.673 71.5381 184.193 71.479 184.737 71.479C185.281 71.479 185.789 71.5381 186.297 71.6563C186.971 71.8099 187.609 72.0581 188.2 72.4127C190.268 73.6064 191.663 75.8401 191.663 78.4047Z" fill="#C4FBAA"/>
<path d="M189.678 97.3499C186.971 98.91 182.586 98.8981 179.868 97.3263C177.15 95.7544 177.138 93.2252 179.833 91.6651C182.527 90.1051 186.924 90.1169 189.642 91.6888C192.36 93.2607 192.372 95.7898 189.678 97.3499Z" fill="#C4FBAA"/>
<path d="M187.313 74.3628C185.954 75.1428 183.744 75.1428 182.385 74.3628C181.404 73.7955 181.12 72.98 181.558 72.2709C182.066 71.999 182.621 71.7981 183.189 71.6681C183.685 71.5499 184.205 71.4908 184.749 71.4908C185.292 71.4908 185.8 71.5499 186.309 71.6681C186.982 71.8218 187.621 72.07 188.211 72.4245C188.531 73.0982 188.235 73.8427 187.325 74.3746L187.313 74.3628Z" fill="#7CE949"/>
<path d="M184.737 72.0226C186.701 72.0226 188.294 70.4299 188.294 68.4652C188.294 66.5005 186.701 64.9078 184.737 64.9078C182.772 64.9078 181.179 66.5005 181.179 68.4652C181.179 70.4299 182.772 72.0226 184.737 72.0226Z" fill="#C4FBAA"/>
<path d="M172.966 87.115L172.989 91.7834H159.126L159.102 87.115C159.102 84.444 160.615 82.1276 162.837 80.9694C163.345 80.6975 163.901 80.4966 164.468 80.3666C164.964 80.2484 165.484 80.1893 166.028 80.1893C166.572 80.1893 167.08 80.2484 167.588 80.3666C168.262 80.5203 168.9 80.7684 169.491 81.123C171.559 82.3167 172.954 84.5504 172.954 87.115H172.966Z" fill="#C4FBAA"/>
<path d="M170.98 94.6316C168.274 96.1917 163.889 96.1799 161.171 94.608C158.452 93.0361 158.441 90.5069 161.135 88.9469C163.83 87.3868 168.226 87.3986 170.945 88.9705C173.663 90.5424 173.675 93.0716 170.98 94.6316Z" fill="#C4FBAA"/>
<path d="M168.604 83.0731C167.245 83.8531 165.035 83.8531 163.676 83.0731C162.695 82.5058 162.411 81.6903 162.849 80.9812C163.357 80.7094 163.912 80.5085 164.48 80.3785C164.976 80.2603 165.496 80.2012 166.04 80.2012C166.583 80.2012 167.091 80.2603 167.6 80.3785C168.273 80.5321 168.912 80.7803 169.502 81.1348C169.822 81.8085 169.526 82.5531 168.616 83.0849L168.604 83.0731Z" fill="#7CE949"/>
<path d="M166.04 80.733C168.005 80.733 169.598 79.1403 169.598 77.1756C169.598 75.2109 168.005 73.6182 166.04 73.6182C164.076 73.6182 162.483 75.2109 162.483 77.1756C162.483 79.1403 164.076 80.733 166.04 80.733Z" fill="#C4FBAA"/>
<path d="M181.853 109.937H168.002C168.002 107.266 169.515 104.949 171.736 103.791C172.245 103.519 172.8 103.318 173.367 103.188C173.864 103.07 174.384 103.011 174.928 103.011C175.471 103.011 175.979 103.07 176.488 103.188C177.161 103.342 177.799 103.59 178.39 103.945C180.459 105.138 181.853 107.372 181.853 109.937Z" fill="#C4FBAA"/>
<path d="M179.855 112.785C177.149 114.345 172.764 114.333 170.046 112.762C167.328 111.19 167.316 108.66 170.011 107.1C172.705 105.54 177.102 105.552 179.82 107.124C182.538 108.696 182.55 111.225 179.855 112.785Z" fill="#C4FBAA"/>
<path d="M177.491 105.895C176.132 106.675 173.922 106.675 172.563 105.895C171.582 105.328 171.298 104.512 171.735 103.803C172.244 103.531 172.799 103.33 173.366 103.2C173.863 103.082 174.383 103.023 174.926 103.023C175.47 103.023 175.978 103.082 176.487 103.2C177.16 103.354 177.798 103.602 178.389 103.957C178.708 104.63 178.413 105.375 177.503 105.907L177.491 105.895Z" fill="#7CE949"/>
<path d="M174.927 103.555C176.892 103.555 178.484 101.962 178.484 99.9973C178.484 98.0326 176.892 96.4399 174.927 96.4399C172.962 96.4399 171.37 98.0326 171.37 99.9973C171.37 101.962 172.962 103.555 174.927 103.555Z" fill="#C4FBAA"/>
<path d="M321.301 364.557L284.865 385.594V343.78L321.301 322.743V364.557Z" fill="#7CE949"/>
<path d="M321.431 364.392L284.994 385.429V343.615L321.431 322.577V364.392Z" fill="#7CE949"/>
<path d="M321.408 364.486L284.971 343.449L321.183 322.542L357.62 343.579L321.408 364.486Z" fill="#007C17" stroke="#7CE949" stroke-width="1.18186" stroke-miterlimit="10"/>
<path d="M321.408 406.171L284.971 385.133V343.319L321.408 364.356V406.171Z" fill="#04381F" stroke="#7CE949" stroke-width="1.18186" stroke-miterlimit="10"/>
<path d="M357.619 385.322L321.183 406.36V364.557L357.619 343.52V385.322Z" fill="#7CE949"/>
<path d="M459.248 285.195L422.811 306.232V264.418L459.248 243.381V285.195Z" fill="#7CE949"/>
<path d="M459.378 285.03L422.942 306.067V264.264L459.378 243.227V285.03Z" fill="#7CE949"/>
<path d="M455.276 121.507L418.84 142.544V100.73L455.276 79.693V121.507Z" fill="#7CE949"/>
<path d="M455.407 121.342L418.982 142.379V100.565L455.407 79.5275V121.342Z" fill="#7CE949"/>
<path d="M455.395 120.754L420.141 100.399L455.171 80.1862L490.426 100.541L455.395 120.754Z" fill="#007C17" stroke="#7CE949" stroke-width="1.18186" stroke-miterlimit="10"/>
<path d="M454.804 121.647V162.097L419.549 141.742V101.293L454.804 121.647Z" fill="#04381F" stroke="#7CE949" stroke-width="1.18186" stroke-miterlimit="10"/>
<path d="M491.607 142.284L455.17 163.322V121.507L491.607 100.47V142.284Z" fill="#7CE949"/>
<path d="M593.59 42.6888L557.153 63.7259V21.9117L593.59 0.874512V42.6888Z" fill="#7CE949"/>
<path d="M593.721 42.5234L557.284 63.5606V21.7463L593.721 0.720947V42.5234Z" fill="#7CE949"/>
<path d="M593.696 42.618L557.26 21.5927L593.472 0.685547L629.909 21.7227L593.696 42.618Z" fill="#007C17" stroke="#7CE949" stroke-width="1.18186" stroke-miterlimit="10"/>
<path d="M593.105 42.8291V83.2787L557.85 62.9239V22.4743L593.105 42.8291Z" fill="#04381F" stroke="#7CE949" stroke-width="1.18186" stroke-miterlimit="10"/>
<path d="M629.909 63.466L593.473 84.5032V42.6889L629.909 21.6517V63.466Z" fill="#7CE949"/>
<path d="M175.518 285.195L139.081 306.232V264.418L175.518 243.381V285.195Z" fill="#7CE949"/>
<path d="M175.648 285.03L139.212 306.067V264.264L175.648 243.227V285.03Z" fill="#7CE949"/>
<path d="M175.625 284.454L140.382 264.099L175.401 243.874L210.655 264.229L175.625 284.454Z" fill="#007C17" stroke="#7CE949" stroke-width="1.18186" stroke-miterlimit="10"/>
<path d="M175.034 285.335V325.785L139.791 305.43V264.992L175.034 285.335Z" fill="#04381F" stroke="#7CE949" stroke-width="1.18186" stroke-miterlimit="10"/>
<path d="M211.837 305.972L175.4 327.009V285.195L211.837 264.158V305.972Z" fill="#7CE949"/>
<path d="M317.377 205.159L280.952 226.197V184.382L317.377 163.345V205.159Z" fill="#7CE949"/>
<path d="M317.519 204.994L281.082 226.031V184.217L317.519 163.18V204.994Z" fill="#7CE949"/>
<path d="M317.495 204.406L282.24 184.051L317.27 163.838L352.525 184.193L317.495 204.406Z" fill="#007C17" stroke="#7CE949" stroke-width="1.18186" stroke-miterlimit="10"/>
<path d="M316.904 205.3V245.749L281.649 225.395V184.945L316.904 205.3Z" fill="#04381F" stroke="#7CE949" stroke-width="1.18186" stroke-miterlimit="10"/>
<path d="M353.708 225.937L317.271 246.974V205.159L353.708 184.122V225.937Z" fill="#7CE949"/>
<path d="M459.437 448.174L423 469.211V427.397L459.437 406.36V448.174Z" fill="#7CE949"/>
<path d="M459.567 448.009L423.13 469.046V427.231L459.567 406.194V448.009Z" fill="#7CE949"/>
<path d="M459.555 448.103L423.118 427.066L459.319 406.171L495.755 427.208L459.555 448.103Z" fill="#007C17" stroke="#7CE949" stroke-width="1.18186" stroke-miterlimit="10"/>
<path d="M459.555 489.787L423.118 468.75V426.936L459.555 447.973V489.787Z" fill="#04381F" stroke="#7CE949" stroke-width="1.18186" stroke-miterlimit="10"/>
<path d="M495.755 468.951L459.318 489.988V448.174L495.755 427.137V468.951Z" fill="#7CE949"/>
<path d="M347.657 184.122L437.171 131.695" stroke="#7CE949" stroke-width="1.18186" stroke-miterlimit="10"/>
<path d="M495.755 427.208L581.393 377.948" stroke="#7CE949" stroke-width="1.18186" stroke-miterlimit="10"/>
<path d="M211.837 264.229L299.283 215.347" stroke="#7CE949" stroke-width="1.18186" stroke-miterlimit="10"/>
<path d="M433.342 269.973L335.484 215.548" stroke="#007C17" stroke-width="1.18186" stroke-miterlimit="10"/>
<path d="M37.6188 204.406L2.36399 184.051L37.3941 163.838L72.6488 184.193L37.6188 204.406Z" fill="#007C17" stroke="#7CE949" stroke-width="1.18186" stroke-miterlimit="10"/>
<path d="M37.0278 205.3V245.749L1.77282 225.395V184.945L37.0278 205.3Z" fill="#04381F" stroke="#7CE949" stroke-width="1.18186" stroke-miterlimit="10"/>
<path d="M73.8305 225.937L37.3937 246.974V205.159L73.8305 184.122V225.937Z" fill="#7CE949"/>
<path d="M153.465 269.973L55.6064 215.548" stroke="#007C17" stroke-width="1.18186" stroke-miterlimit="10"/>
<path d="M477.355 111.154L575.485 52.8765" stroke="#7CE949" stroke-width="1.18186" stroke-miterlimit="10"/>
<path d="M569.858 191.131L473.383 131.896" stroke="#007C17" stroke-width="1.18186" stroke-miterlimit="10"/>
<path d="M299.165 354.003L193.625 295.584" stroke="#007C17" stroke-width="1.18186" stroke-miterlimit="10"/>
<path d="M437.194 435.067L339.395 374.946" stroke="#7CE949" stroke-width="1.18186" stroke-miterlimit="10"/>
<path d="M332.398 183.639C332.421 179.501 325.863 176.109 317.75 176.064C309.637 176.019 303.041 179.337 303.018 183.475C302.995 187.613 309.553 191.005 317.666 191.05C325.779 191.095 332.375 187.777 332.398 183.639Z" fill="#489F3B"/>
<path d="M317.271 132.038L313.962 132.558L313.076 134.472L315.51 135.879L318.832 135.359L319.706 133.444L317.271 132.038Z" fill="#99CECC"/>
<path d="M313.076 134.472L310.724 185.411L314.884 187.822L315.51 135.879L313.076 134.472Z" fill="#EBFFFF"/>
<path d="M318.831 135.359L320.556 186.947L314.883 187.822L315.51 135.879L318.831 135.359Z" fill="#BCE2E2"/>
<path d="M319.706 133.444L322.07 183.65L320.557 186.947L318.832 135.359L319.706 133.444Z" fill="#99CECC"/>
<path d="M314.967 178.189L314.978 176.842L311.066 174.585L311.019 176.05L314.884 178.201L314.967 178.189Z" fill="#84D385"/>
<path d="M315.037 170.318L315.014 170.33L311.279 168.167L311.232 169.621L315.025 171.689L315.037 170.318Z" fill="#84D385"/>
<path d="M320.108 176.062L315.014 176.854L314.978 176.842L314.966 178.189L320.332 177.35L320.297 175.696L320.108 176.062Z" fill="#35B664"/>
<path d="M320.178 170.85L320.143 169.467L320.107 169.538L315.037 170.318L315.025 171.689L320.178 170.85Z" fill="#35B664"/>
<path d="M320.332 177.35L321.738 173.935L321.703 172.729L320.296 175.696L320.332 177.35Z" fill="#7CE949"/>
<path d="M320.143 169.467L320.178 170.85L321.526 167.494L321.502 166.583L321.467 166.572L320.143 169.467Z" fill="#7CE949"/>
<path d="M317.65 134.484L317.047 136.174C317 136.304 316.917 136.411 316.822 136.458L323.582 132.522C323.677 132.463 323.76 132.369 323.807 132.239L324.41 130.549L317.65 134.484Z" fill="#99CECC"/>
<path d="M318.702 125.821C318.43 125.667 318.194 125.656 318.029 125.75L311.268 129.686C311.434 129.591 311.67 129.603 311.942 129.757L316.764 132.534L323.524 128.598L318.702 125.821Z" fill="#EBFFFF"/>
<path d="M323.524 128.61L316.763 132.546C317.413 132.924 317.862 133.905 317.65 134.496L324.41 130.56C324.623 129.981 324.162 128.988 323.524 128.61Z" fill="#BCE2E2"/>
<path d="M316.752 132.534L311.93 129.757C311.28 129.378 310.831 129.851 311.032 130.667L311.623 133.042C311.753 133.562 312.107 134.07 312.521 134.295L316.149 136.387C316.551 136.623 316.917 136.529 317.047 136.162L317.65 134.472C317.863 133.893 317.402 132.9 316.764 132.522L316.752 132.534Z" fill="#77B2AE"/>
<path d="M308.372 135.418C308.372 135.418 306.859 136.186 304.307 136.186C301.754 136.186 287.477 134.744 287.477 134.744L306.422 133.302L309.4 134.472L308.372 135.43V135.418Z" fill="#77B2AE"/>
<path d="M310.181 133.633L309.59 134.567C309.59 134.567 309.59 134.567 307.049 135.099C307.416 134.153 307.853 133.243 308.361 132.369C309.378 133.054 310.17 133.621 310.17 133.621L310.181 133.633Z" fill="#77B2AE"/>
<path d="M286.508 133.633C286.591 132.924 302.782 129.958 304 129.993C304.733 130.017 306.824 131.329 308.373 132.38C307.864 133.255 307.415 134.165 307.061 135.111C306.978 135.122 306.907 135.146 306.824 135.158C304.047 135.749 292.737 135.158 289.333 134.921C285.929 134.685 286.437 134.331 286.52 133.633H286.508Z" fill="#CDEEEF"/>
<path d="M312.001 136.115C310.7 136.612 309.294 136.824 307.899 136.753C307.249 135.122 309.637 131.589 311.161 130.572C312.804 129.473 313.123 129.863 313.123 129.863C313.123 129.863 315.31 130.761 316.173 133.09C315.062 134.425 313.62 135.489 312.001 136.103V136.115Z" fill="#CDEEEF"/>
<path d="M312.001 136.115C313.62 135.501 315.073 134.437 316.172 133.101C316.503 133.988 316.657 135.087 316.409 136.422L315.121 138.526L313.785 137.805C313.785 137.805 309.365 138.526 308.112 137.12C308.018 137.013 307.959 136.895 307.899 136.765C309.294 136.836 310.7 136.623 312.001 136.127V136.115Z" fill="#77B2AE"/>
<path d="M311.953 97.8346C311.953 97.8346 311.126 111.639 311.161 112.773C311.197 113.908 311.161 130.572 311.161 130.572L312.651 104.63L311.953 97.8228V97.8346Z" fill="#EBFFFF"/>
<path d="M316.41 136.422L318.584 139.885L319.967 140.878L336.785 160.84C336.785 160.84 337.506 161.939 337.116 161.998C336.726 162.057 335.083 159.93 335.083 159.93L317.154 140.713L315.677 136.647L316.421 136.422H316.41Z" fill="#EBFFFF"/>
<path d="M334.243 158.996L337.103 162.01C337.103 162.01 320.628 147.733 319.458 146.374C318.288 145.014 313.785 137.805 313.785 137.805V137.439L320.51 143.62L334.243 158.996Z" fill="#77B2AE"/>
<path d="M315.665 136.647L318.324 140.642L320.12 141.812C320.12 141.812 337.647 161.608 337.104 161.998C336.56 162.388 319.021 144.861 319.021 144.861L313.774 137.427L315.653 136.647H315.665Z" fill="#CDEEEF"/>
<path d="M314.14 130.584C314.14 130.584 313.667 131.329 312.804 131.364C311.941 131.399 311.516 130.974 311.516 130.974L312.343 98.2246C312.343 98.2246 312.107 97.2909 312.828 97.2437C313.549 97.1964 313.631 97.9528 313.868 99.2056C314.104 100.458 316.645 121.2 316.527 122.453C316.409 123.706 314.021 127.263 314.021 128.043C314.021 128.823 314.14 130.584 314.14 130.584Z" fill="#77B2AE"/>
<path d="M313.785 130.584C313.785 130.584 313.312 131.329 312.45 131.364C311.587 131.399 311.161 130.974 311.161 130.974L311.989 98.2246C311.989 98.2246 311.752 97.2909 312.473 97.2437C313.194 97.1964 313.277 97.9528 313.513 99.2056C313.75 100.458 316.291 121.2 316.173 122.453C316.054 123.706 313.667 127.263 313.667 128.043C313.667 128.823 313.785 130.584 313.785 130.584Z" fill="#CDEEEF"/>
<path d="M473.418 95.0454H436.852C436.852 87.9897 440.846 81.8676 446.708 78.8184C448.056 78.1093 449.509 77.5774 451.022 77.2347C452.346 76.9274 453.717 76.762 455.135 76.762C456.553 76.762 457.924 76.9274 459.248 77.2347C461.032 77.6365 462.722 78.3102 464.271 79.2202C469.731 82.364 473.418 88.2733 473.418 95.0454Z" fill="#C4FBAA"/>
<path d="M468.159 102.538C461.032 106.651 449.426 106.639 442.252 102.491C435.078 98.3428 435.043 91.6534 442.17 87.5405C449.296 83.4277 460.902 83.4395 468.076 87.5878C475.25 91.7362 475.285 98.4255 468.159 102.538Z" fill="#C4FBAA"/>
<path d="M461.919 84.3613C458.338 86.4296 452.511 86.4178 448.906 84.3377C446.318 82.8367 445.574 80.6739 446.708 78.8184C448.055 78.1093 449.509 77.5774 451.022 77.2347C452.346 76.9274 453.717 76.762 455.135 76.762C456.553 76.762 457.924 76.9274 459.248 77.2347C461.032 77.6365 462.722 78.3102 464.271 79.2202C465.11 80.993 464.33 82.9786 461.919 84.3613Z" fill="#7CE949"/>
<path d="M464.519 68.8081C464.519 71.8691 463.042 74.5874 460.773 76.3011C457.44 74.8946 452.878 74.9419 449.651 76.4193C447.288 74.7056 445.751 71.94 445.751 68.8081C445.751 63.6197 449.959 59.4241 455.135 59.4241C460.312 59.4241 464.519 63.6197 464.519 68.8081Z" fill="#7CE949"/>
<path d="M455.135 78.1802C460.318 78.1802 464.519 73.9788 464.519 68.7962C464.519 63.6136 460.318 59.4122 455.135 59.4122C449.953 59.4122 445.751 63.6136 445.751 68.7962C445.751 73.9788 449.953 78.1802 455.135 78.1802Z" fill="#C4FBAA"/>
<path d="M168.025 261.121L165.792 264.359L170.295 269.547L178.603 270.481L196.142 267.786L202.028 265.174L205.278 263.52L199.416 260.482L191.84 259.218L180.009 257.043L171.406 258.379L168.025 261.121Z" fill="#04381F"/>
<path d="M176.864 252.8L176.817 264.052L177.786 261.948L177.833 250.685L176.864 252.8Z" fill="#007C17"/>
<path d="M173.224 253.367L173.177 264.619L176.817 264.052L176.864 252.8L173.224 253.367Z" fill="#007C17"/>
<path d="M170.553 251.819L170.506 263.082L173.177 264.619L173.224 253.368L170.553 251.819Z" fill="#7CE949"/>
<path d="M175.151 249.136L171.51 249.704L170.553 251.819L173.224 253.368L176.864 252.8L177.833 250.685L175.151 249.136Z" fill="#5ABB6B"/>
<path d="M170.506 254.963L173.224 259.04L176.864 260.341L177.834 260.931V250.685L176.864 252.8L173.224 253.368L170.553 251.819L170.506 254.963Z" fill="#04381F"/>
<path d="M184.57 257.67L178.401 258.083L176.994 253.167L176.191 258.45L167.008 258.083L168.213 242.294C168.213 242.294 172.444 239.422 172.657 239.422C172.87 239.422 183.223 243.345 183.223 243.345L184.322 249.727L184.582 257.67H184.57Z" fill="#7CE949"/>
<path d="M163.427 255.105L167.008 258.083L169.927 244.385L166.795 240.781L163.427 240.202L157.482 249.562L162.505 254.372" fill="#C4FBAA"/>
<path d="M168.864 247.884L163.427 242.341L167.316 236.337L176.889 237.483L185.989 240.202L191.059 249.196L189.594 251.441L188.495 252.28L186.249 255.105L184.571 257.67L182.278 252.02L181.699 252.859L179.371 251.547" fill="#04381F"/>
<path d="M181.486 242.873L175.211 245.378L174.844 234.552L176.735 231.208L183.732 235.332L186.769 240.202L183.472 241.927" fill="#007C17"/>
<path d="M166.795 243.074L175.21 245.378V236.384L174.17 231.621L167.256 229.6L162.505 241.927L164.597 242.873" fill="#7CE949"/>
<path d="M165.602 227.745L161.513 234.032L161.985 235.699L164.03 232.78L161.513 236.644L162.505 241.927L168.805 229.482V225.298L167.162 226.338L165.602 227.745Z" fill="#C4FBAA"/>
<path d="M171.972 234.871L165.602 227.745L168.805 224.069H178.2L181.699 227.497L185.776 231.834V233.512L186.249 234.871L186.769 240.202L179.607 237.164L178.035 237.637L171.972 234.871Z" fill="#04381F"/>
<path d="M174.171 211.695L169.396 230.664L168.037 229.766L168.261 225.818L166.796 228.773L164.692 226.965L163.427 225.818L174.171 211.695Z" fill="#C4FBAA"/>
<path d="M180.281 230.487L174.17 211.695L169.396 230.664L171.263 230.841L172.161 229.659L172.681 230.664H175.163L175.506 225.44L176.558 230.487H180.281Z" fill="#7CE949"/>
<path d="M174.17 211.695L184.571 224.885L183.176 223.62L184.299 225.617L181.545 228.927L180.954 227.839L181.155 229.447L180.281 230.487L174.17 211.695Z" fill="#007C17"/>
<path d="M169.396 230.664L163.05 226.149L163.818 225.298L169.692 224.837L169.396 230.664Z" fill="#C4FBAA"/>
<path d="M180.282 230.487L169.279 231.007L171.56 222.095L175.212 223.313L180.282 230.487Z" fill="#7CE949"/>
<path d="M180.281 230.487L184.902 224.837L180.056 219.153L180.281 230.487Z" fill="#007C17"/>
<path d="M184.571 257.67L177.326 258.71L167.008 258.083L168.698 250.141L178.118 252.54L184.571 257.67Z" fill="#7CE949"/>
<path d="M45.5964 188.554C44.0836 189.902 38.5052 188.708 33.1396 185.883C27.7739 183.059 24.6302 179.667 26.1429 178.319C27.6557 176.972 33.2341 178.166 38.5998 180.99C43.9654 183.815 47.1092 187.207 45.5964 188.554Z" fill="#04381F"/>
<path d="M44.4748 137.616C51.826 146.35 54.6034 162.175 50.6914 172.966C46.7794 183.756 37.6555 185.434 30.3043 176.7C22.9531 167.966 20.1757 152.141 24.0877 141.351C27.9996 130.56 37.1236 128.882 44.4748 137.616Z" fill="#007C17"/>
<path d="M40.5033 138.053C47.8545 146.787 50.6319 162.612 46.7199 173.403C42.8079 184.193 33.684 185.871 26.3328 177.137C18.9816 168.404 16.2042 152.578 20.1162 141.788C24.0281 130.998 33.1521 129.319 40.5033 138.053Z" fill="#C4FBAA"/>
<path d="M39.1088 141.516C45.1599 148.714 47.4646 161.762 44.2381 170.649C41.0116 179.537 33.4949 180.92 27.432 173.734C21.3809 166.536 19.0762 153.489 22.3027 144.601C25.5292 135.713 33.0458 134.331 39.1088 141.516Z" fill="#7CE949"/>
<path d="M31.7697 136.954C29.5478 138.077 27.645 140.393 26.3804 143.868C23.1539 152.768 25.4467 165.803 31.4979 173.013C33.838 175.79 36.3908 177.291 38.8254 177.575C35.3507 179.324 31.1079 178.13 27.4205 173.746C21.3693 166.548 19.0647 153.5 22.2912 144.613C24.2649 139.152 27.8696 136.517 31.7579 136.978L31.7697 136.954Z" fill="#007C17"/>
<path d="M593.637 205.124L557.212 226.161V184.347L593.637 163.322V205.124Z" fill="#7CE949"/>
<path d="M593.779 204.958L557.343 225.996V184.193L593.779 163.156V204.958Z" fill="#7CE949"/>
<path d="M593.755 204.383L558.5 184.028L593.531 163.803L628.786 184.158L593.755 204.383Z" fill="#007C17" stroke="#7CE949" stroke-width="1.18186" stroke-miterlimit="10"/>
<path d="M593.164 205.276V245.714L557.909 225.359V184.921L593.164 205.276Z" fill="#04381F" stroke="#7CE949" stroke-width="1.18186" stroke-miterlimit="10"/>
<path d="M629.968 225.901L593.531 246.938V205.124L629.968 184.087V225.901Z" fill="#7CE949"/>
<path d="M483.63 274.641L575.543 215.312" stroke="#7CE949" stroke-width="1.18186" stroke-miterlimit="10"/>
<path d="M593.449 192.301H594.915L592.433 193.695L594.607 194.865H597.515L605.906 187.762L605.776 186.888H610.173V184.69H602.467L585.247 174.372L572.152 181.936L591.416 193.483L593.437 192.313L593.449 192.301ZM597.267 190.091L602.821 186.876H604.5L598.815 190.091H597.267Z" fill="#04381F"/>
<path d="M611.756 182.929L613.364 183.862L611.65 184.855L610.043 183.91L611.756 182.929Z" fill="white"/>
<path d="M611.65 184.855L610.043 183.91L608.423 184.855L610.031 185.789L611.65 184.855Z" fill="#04381F"/>
<path d="M608.424 184.855L610.031 185.789L600.943 191.036L599.336 190.091L608.424 184.855Z" fill="white"/>
<path d="M600.943 191.036L599.335 190.091L597.716 191.036L599.324 191.97L600.943 191.036Z" fill="#04381F"/>
<path d="M597.716 191.036L599.323 191.97L597.527 193.01L595.908 192.076L597.716 191.036Z" fill="white"/>
<path d="M609.983 170.637L610.031 185.789L608.423 184.855L608.376 169.704L609.983 170.637Z" fill="#C4FBAA"/>
<path d="M597.527 193.01V194.866L595.92 193.932L595.908 192.076L597.527 193.01Z" fill="#C4FBAA"/>
<path d="M599.324 191.97L597.716 191.036L597.681 180.01L599.288 180.943L599.324 191.97Z" fill="#C4FBAA"/>
<path d="M609.984 165.744L611.603 166.678L599.288 180.943L597.681 180.009L609.984 165.744Z" fill="white"/>
<path d="M597.527 193.01V194.877L613.376 185.73V183.862L611.662 184.855L611.615 166.69L599.312 180.955L599.347 191.982L597.551 193.022L597.527 193.01ZM600.943 191.036L600.919 181.156L609.996 170.649L610.043 185.801L600.954 191.048L600.943 191.036Z" fill="#C0CDC7"/>
<path d="M594.654 173.143L596.261 174.076L594.547 175.057L592.94 174.124L594.654 173.143Z" fill="white"/>
<path d="M594.547 175.057L592.94 174.124L591.321 175.057L592.928 175.991L594.547 175.057Z" fill="#04381F"/>
<path d="M591.32 175.057L592.927 175.991L583.839 181.239L582.232 180.305L591.32 175.057Z" fill="white"/>
<path d="M583.839 181.239L582.231 180.305L580.612 181.239L582.22 182.172L583.839 181.239Z" fill="#04381F"/>
<path d="M580.613 181.239L582.22 182.172L580.424 183.212L578.816 182.279L580.613 181.239Z" fill="white"/>
<path d="M592.892 160.851L592.928 175.991L591.321 175.057L591.273 159.918L592.892 160.851Z" fill="#C4FBAA"/>
<path d="M580.423 183.212V185.08L578.816 184.146V182.279L580.423 183.212Z" fill="#C4FBAA"/>
<path d="M582.22 182.172L580.613 181.239L580.577 170.212L582.196 171.145L582.22 182.172Z" fill="#C4FBAA"/>
<path d="M592.893 155.958L594.5 156.892L582.197 171.145L580.578 170.212L592.893 155.958Z" fill="white"/>
<path d="M580.424 183.212V185.08L596.273 175.932V174.065L594.559 175.057L594.512 156.892L582.209 171.157L582.244 182.184L580.448 183.224L580.424 183.212ZM583.84 181.238L583.816 171.358L592.893 160.851L592.94 176.003L583.852 181.25L583.84 181.238Z" fill="#C0CDC7"/>
<path d="M618.415 161.34L602.926 188.166L604.134 188.863L619.622 162.037L618.415 161.34Z" fill="#C4FBAA"/>
<path d="M589.668 144.749L574.18 171.576L602.91 188.163L618.398 161.337L589.668 144.749Z" fill="#C0CDC7"/>
<path d="M618.398 161.348L619.604 162.045L590.873 145.452L589.667 144.754L618.398 161.348Z" fill="#04381F"/>
<path d="M603.688 154.249L600.343 160.042L606.689 163.706L610.033 157.913L603.688 154.249Z" fill="#04381F"/>
<path d="M582.639 158.926L579.294 164.719L585.64 168.383L588.985 162.59L582.639 158.926Z" fill="#007C17"/>
<path d="M586.274 152.606L582.929 158.4L589.275 162.063L592.619 156.27L586.274 152.606Z" fill="#007C17"/>
<path d="M600.053 160.557L596.708 166.35L603.054 170.014L606.399 164.221L600.053 160.557Z" fill="#04381F"/>
<path d="M606.947 164.547L603.602 170.34L609.948 174.004L613.293 168.211L606.947 164.547Z" fill="#04381F"/>
<path d="M610.593 158.239L607.248 164.032L613.594 167.696L616.939 161.903L610.593 158.239Z" fill="#04381F"/>
<path d="M578.994 165.228L575.65 171.021L581.995 174.685L585.34 168.892L578.994 165.228Z" fill="#007C17"/>
<path d="M585.889 169.207L582.545 175L588.89 178.664L592.235 172.87L585.889 169.207Z" fill="#007C17"/>
<path d="M599.668 177.157L596.323 182.95L602.669 186.614L606.013 180.821L599.668 177.157Z" fill="#04381F"/>
<path d="M603.302 170.849L599.957 176.642L606.303 180.306L609.648 174.513L603.302 170.849Z" fill="#04381F"/>
<path d="M586.571 152.094L589.915 146.303L594.903 149.175L594.962 152.224L592.917 155.758L586.571 152.094Z" fill="#007C17"/>
<path d="M596.262 149.967L594.962 152.224L594.903 149.175L596.262 149.967Z" fill="#04381F"/>
<path d="M596.806 150.286L603.152 153.938L599.808 159.741L595.045 156.987L594.986 153.441L596.806 150.286Z" fill="#04381F"/>
<path d="M594.986 153.441L595.045 156.987L593.461 156.077L594.986 153.441Z" fill="#007C17"/>
<path d="M593.165 156.585L595.068 157.684L595.21 165.496L589.821 162.388L593.165 156.585Z" fill="#007C17"/>
<path d="M599.511 160.249L596.167 166.052L595.209 165.496L595.068 157.684L599.511 160.249Z" fill="#04381F"/>
<path d="M586.181 168.687L589.525 162.896L595.222 166.182L595.245 167.635L592.527 172.351L586.181 168.687Z" fill="#007C17"/>
<path d="M595.872 166.56L595.246 167.635L595.222 166.182L595.872 166.56Z" fill="#04381F"/>
<path d="M599.11 176.842L595.765 182.633L595.529 182.503L595.387 174.691L599.11 176.842Z" fill="#04381F"/>
<path d="M592.775 173.178L595.387 174.691L595.529 182.503L589.431 178.981L592.775 173.178Z" fill="#007C17"/>
<path d="M595.269 168.853L595.364 173.994L593.071 172.67L595.269 168.853Z" fill="#007C17"/>
<path d="M596.416 166.867L602.763 170.531L599.418 176.334L595.364 173.994L595.27 168.853L596.416 166.867Z" fill="#04381F"/>
<path d="M459.366 284.454L424.111 264.099L459.129 243.874L494.384 264.229L459.366 284.454Z" fill="#007C17" stroke="#7CE949" stroke-width="1.18186" stroke-miterlimit="10"/>
<path d="M458.775 285.335V325.785L423.52 305.43V264.992L458.775 285.335Z" fill="#04381F" stroke="#7CE949" stroke-width="1.18186" stroke-miterlimit="10"/>
<path d="M495.567 305.972L459.13 327.009V285.195L495.567 264.158V305.972Z" fill="#7CE949"/>
<path d="M347.657 349.335L441.142 295.383" stroke="#7CE949" stroke-width="1.18186" stroke-miterlimit="10"/>
<path d="M575.496 353.649L477.355 295.584" stroke="#007C17" stroke-width="1.18186" stroke-miterlimit="10"/>
<path d="M483.627 228.286C484.43 236.636 479.507 247.366 472.639 252.26C465.771 257.154 459.552 254.362 458.75 246.013C457.948 237.663 462.871 226.933 469.739 222.039C476.607 217.145 482.825 219.936 483.627 228.286Z" fill="#007C17"/>
<path d="M481.044 226.893C481.846 235.243 476.923 245.973 470.055 250.867C463.187 255.761 456.968 252.97 456.166 244.62C455.364 236.271 460.287 225.54 467.155 220.646C474.023 215.752 480.241 218.544 481.044 226.893Z" fill="#C4FBAA"/>
<path d="M478.755 228.406C479.412 235.284 475.362 244.137 469.703 248.166C464.043 252.196 458.92 249.896 458.251 243.02C457.594 236.142 461.644 227.289 467.304 223.26C472.963 219.231 478.086 221.53 478.755 228.406Z" fill="#7CE949"/>
<path d="M476.226 222.59C474.414 222.342 472.297 222.949 470.082 224.523C464.418 228.559 460.366 237.4 461.018 244.285C461.274 246.941 462.192 248.914 463.546 250.102C460.715 249.71 458.647 247.218 458.246 243.027C457.589 236.149 461.639 227.296 467.298 223.267C470.77 220.788 474.05 220.698 476.209 222.599L476.226 222.59Z" fill="#007C17"/>
<path d="M449.011 230.869C444.171 231.465 437.859 228.77 434.909 224.855C431.958 220.939 433.484 217.282 438.324 216.687C443.164 216.091 449.476 218.786 452.426 222.701C455.377 226.616 453.851 230.273 449.011 230.869Z" fill="#007C17"/>
<path d="M449.78 229.346C444.94 229.941 438.629 227.247 435.678 223.332C432.728 219.416 434.254 215.759 439.093 215.164C443.933 214.568 450.245 217.263 453.195 221.178C456.146 225.093 454.62 228.75 449.78 229.346Z" fill="#C4FBAA"/>
<path d="M448.866 228.039C444.879 228.528 439.671 226.311 437.242 223.085C434.813 219.859 436.07 216.846 440.055 216.35C444.042 215.862 449.25 218.078 451.679 221.305C454.108 224.531 452.851 227.544 448.866 228.039Z" fill="#7CE949"/>
<path d="M452.206 226.48C452.322 225.423 451.936 224.202 450.987 222.939C448.554 219.71 443.354 217.492 439.363 217.978C437.823 218.168 436.691 218.732 436.022 219.537C436.206 217.886 437.622 216.645 440.051 216.347C444.037 215.859 449.245 218.075 451.674 221.302C453.168 223.281 453.272 225.186 452.2 226.47L452.206 226.48Z" fill="#007C17"/>
<path d="M599.499 367.76L563.063 388.797V346.983L599.499 325.946V367.76Z" fill="#7CE949"/>
<path d="M599.63 367.595L563.193 388.632V346.817L599.63 325.78V367.595Z" fill="#7CE949"/>
<path d="M599.606 367.689L563.169 346.652L599.381 325.757L635.818 346.794L599.606 367.689Z" fill="#007C17" stroke="#7CE949" stroke-width="1.18186" stroke-miterlimit="10"/>
<path d="M599.606 409.373L563.169 388.336V346.522L599.606 367.559V409.373Z" fill="#04381F" stroke="#7CE949" stroke-width="1.18186" stroke-miterlimit="10"/>
<path d="M635.819 388.537L599.382 409.574V367.76L635.819 346.723V388.537Z" fill="#7CE949"/>
</g>
<defs>
<clipPath id="clip0_36_1348">
<rect width="637" height="490.816" fill="white"/>
</clipPath>
</defs>
</svg>
